<?xml version="1.0" encoding="utf-8"?>
<!-- Generator: Adobe Illustrator 26.0.0, SVG Export Plug-In . SVG Version: 6.00 Build 0)  -->
<svg version="1.1" id="Layer_1" xmlns="http://www.w3.org/2000/svg" xmlns:xlink="http://www.w3.org/1999/xlink" x="0px" y="0px"
	 viewBox="0 0 79 79" style="enable-background:new 0 0 79 79;" xml:space="preserve">
<style type="text/css">
	.st0{clip-path:url(#SVGID_00000152250291552131469900000013910101901100162211_);}
	.st1{clip-path:url(#SVGID_00000000911424331625287710000014195363639162656183_);fill:#8F8F8F;}
</style>
<g id="Artwork_269_00000065039516037198349430000013728899095060994692_">
	<g>
		<defs>
			<rect id="SVGID_1_" x="1.17" y="1.17" width="76.67" height="76.67"/>
		</defs>
		<clipPath id="SVGID_00000122695142988115693100000003561340858135543479_">
			<use xlink:href="#SVGID_1_"  style="overflow:visible;"/>
		</clipPath>
		<g style="clip-path:url(#SVGID_00000122695142988115693100000003561340858135543479_);">
			<defs>
				<rect id="SVGID_00000023258416609534060640000007135623541715449260_" x="1.17" y="1.17" width="76.67" height="76.67"/>
			</defs>
			<clipPath id="SVGID_00000046334906837181429720000001703915533010741924_">
				<use xlink:href="#SVGID_00000023258416609534060640000007135623541715449260_"  style="overflow:visible;"/>
			</clipPath>
			<path style="clip-path:url(#SVGID_00000046334906837181429720000001703915533010741924_);fill:#8F8F8F;" d="M39.5,1.17
				C18.33,1.17,1.17,18.33,1.17,39.5S18.33,77.83,39.5,77.83S77.83,60.67,77.83,39.5S60.67,1.17,39.5,1.17 M52.05,23.36l-4.55,0
				c-3.57,0-4.26,1.69-4.26,4.18v5.48h8.5l-1.11,8.59h-7.4v22.04h-8.87V41.62h-7.42v-8.59h7.42V26.7c0-7.35,4.49-11.35,11.05-11.35
				c3.14,0,5.84,0.23,6.63,0.34V23.36z"/>
		</g>
	</g>
</g>
</svg>
