<svg id="Icono_IG" data-name="Icono IG" xmlns="http://www.w3.org/2000/svg" width="33.461" height="33.461" viewBox="0 0 33.461 33.461">
  <path id="Path_200" data-name="Path 200" d="M16.73,3.014c4.468,0,5,.017,6.761.1a9.257,9.257,0,0,1,3.107.576A5.188,5.188,0,0,1,28.521,4.94a5.18,5.18,0,0,1,1.251,1.924,9.268,9.268,0,0,1,.576,3.107c.08,1.764.1,2.293.1,6.761s-.017,5-.1,6.761a9.266,9.266,0,0,1-.576,3.107A5.537,5.537,0,0,1,26.6,29.773a9.266,9.266,0,0,1-3.107.576c-1.764.08-2.293.1-6.761.1s-5-.017-6.761-.1a9.268,9.268,0,0,1-3.107-.576A5.18,5.18,0,0,1,4.94,28.521,5.188,5.188,0,0,1,3.688,26.6a9.257,9.257,0,0,1-.576-3.107c-.08-1.764-.1-2.293-.1-6.761s.017-5,.1-6.761a9.26,9.26,0,0,1,.576-3.107A5.186,5.186,0,0,1,4.94,4.94,5.186,5.186,0,0,1,6.863,3.688,9.26,9.26,0,0,1,9.97,3.112c1.764-.08,2.293-.1,6.761-.1M16.73,0c-4.544,0-5.113.019-6.9.1A12.286,12.286,0,0,0,5.771.878a8.21,8.21,0,0,0-2.963,1.93A8.21,8.21,0,0,0,.878,5.771,12.286,12.286,0,0,0,.1,9.833c-.081,1.785-.1,2.354-.1,6.9s.019,5.114.1,6.9A12.28,12.28,0,0,0,.878,27.69a8.206,8.206,0,0,0,1.93,2.963,8.2,8.2,0,0,0,2.963,1.93,12.274,12.274,0,0,0,4.061.778c1.785.082,2.354.1,6.9.1s5.114-.019,6.9-.1a12.268,12.268,0,0,0,4.061-.778,8.553,8.553,0,0,0,4.893-4.893,12.268,12.268,0,0,0,.778-4.061c.082-1.785.1-2.354.1-6.9s-.019-5.113-.1-6.9a12.274,12.274,0,0,0-.778-4.061,8.2,8.2,0,0,0-1.93-2.963A8.206,8.206,0,0,0,27.69.878,12.28,12.28,0,0,0,23.629.1C21.844.019,21.274,0,16.73,0Z" transform="translate(0 0)" fill="#4c2f92"/>
  <path id="Path_201" data-name="Path 201" d="M26.328,17.737a8.591,8.591,0,1,0,8.591,8.591A8.592,8.592,0,0,0,26.328,17.737Zm0,14.169a5.577,5.577,0,1,1,5.577-5.577A5.577,5.577,0,0,1,26.328,31.906Z" transform="translate(-9.598 -9.598)" fill="#4c2f92"/>
  <circle id="Ellipse_7" data-name="Ellipse 7" cx="2.008" cy="2.008" r="2.008" transform="translate(23.654 5.792)" fill="#4c2f92"/>
</svg>
