<?xml version="1.0" encoding="utf-8"?>
<!-- Generator: Adobe Illustrator 26.0.0, SVG Export Plug-In . SVG Version: 6.00 Build 0)  -->
<svg version="1.1" id="Layer_1" xmlns="http://www.w3.org/2000/svg" xmlns:xlink="http://www.w3.org/1999/xlink" x="0px" y="0px"
	 viewBox="0 0 79 79" style="enable-background:new 0 0 79 79;" xml:space="preserve">
<style type="text/css">
	.st0{clip-path:url(#SVGID_00000125604348439096609470000007416277299184919177_);}
	.st1{clip-path:url(#SVGID_00000088823045550888075870000010249582004623816837_);fill:#8F8F8F;}
</style>
<g id="Artwork_270_00000170248327565921084210000011569546362482950787_">
	<g>
		<defs>
			<rect id="SVGID_1_" x="3.04" y="3.04" width="72.92" height="72.92"/>
		</defs>
		<clipPath id="SVGID_00000107556902804985633670000004244084340799131549_">
			<use xlink:href="#SVGID_1_"  style="overflow:visible;"/>
		</clipPath>
		<g style="clip-path:url(#SVGID_00000107556902804985633670000004244084340799131549_);">
			<defs>
				<rect id="SVGID_00000134968054164900088320000017237534260185979803_" x="3.04" y="3.04" width="72.92" height="72.92"/>
			</defs>
			<clipPath id="SVGID_00000141413957993986085000000012267427359069874109_">
				<use xlink:href="#SVGID_00000134968054164900088320000017237534260185979803_"  style="overflow:visible;"/>
			</clipPath>
			<path style="clip-path:url(#SVGID_00000141413957993986085000000012267427359069874109_);fill:#8F8F8F;" d="M39.5,9.61
				c9.73,0,10.89,0.04,14.73,0.21c3.56,0.16,5.49,0.76,6.77,1.25c1.7,0.66,2.92,1.45,4.19,2.73c1.28,1.28,2.07,2.49,2.73,4.19
				c0.5,1.28,1.09,3.22,1.25,6.77c0.18,3.85,0.21,5,0.21,14.73c0,9.74-0.04,10.89-0.21,14.73c-0.16,3.56-0.76,5.49-1.25,6.77
				c-0.66,1.7-1.45,2.92-2.73,4.19c-1.28,1.28-2.49,2.07-4.19,2.73c-1.28,0.5-3.22,1.09-6.77,1.26c-3.84,0.18-5,0.21-14.73,0.21
				s-10.89-0.04-14.73-0.21c-3.56-0.16-5.49-0.76-6.77-1.26c-1.7-0.66-2.92-1.45-4.19-2.73c-1.28-1.28-2.07-2.49-2.73-4.19
				c-0.5-1.28-1.09-3.22-1.25-6.77c-0.18-3.84-0.21-5-0.21-14.73c0-9.73,0.04-10.89,0.21-14.73c0.16-3.56,0.76-5.49,1.25-6.77
				c0.66-1.7,1.45-2.92,2.73-4.19c1.28-1.28,2.49-2.07,4.19-2.73c1.28-0.5,3.22-1.09,6.77-1.25C28.61,9.65,29.77,9.61,39.5,9.61
				 M39.5,3.04c-9.9,0-11.14,0.04-15.03,0.22c-3.88,0.18-6.53,0.79-8.85,1.69c-2.4,0.93-4.43,2.18-6.46,4.21
				c-2.03,2.03-3.27,4.06-4.21,6.46c-0.9,2.32-1.52,4.97-1.69,8.85C3.08,28.36,3.04,29.6,3.04,39.5s0.04,11.14,0.22,15.03
				c0.18,3.88,0.79,6.53,1.69,8.85c0.93,2.4,2.18,4.43,4.21,6.46s4.06,3.27,6.46,4.2c2.32,0.9,4.97,1.52,8.85,1.69
				c3.89,0.18,5.13,0.22,15.03,0.22s11.14-0.04,15.03-0.22c3.88-0.18,6.53-0.79,8.85-1.69c2.4-0.93,4.43-2.18,6.46-4.2
				s3.27-4.06,4.21-6.46c0.9-2.32,1.52-4.97,1.69-8.85c0.18-3.89,0.22-5.13,0.22-15.03s-0.04-11.14-0.22-15.03
				c-0.18-3.88-0.79-6.53-1.69-8.85c-0.93-2.4-2.18-4.43-4.21-6.46c-2.03-2.03-4.06-3.27-6.46-4.21c-2.32-0.9-4.97-1.52-8.85-1.69
				C50.64,3.08,49.4,3.04,39.5,3.04"/>
			<path style="clip-path:url(#SVGID_00000141413957993986085000000012267427359069874109_);fill:#8F8F8F;" d="M39.5,20.78
				c-10.34,0-18.72,8.38-18.72,18.72c0,10.34,8.38,18.72,18.72,18.72s18.72-8.38,18.72-18.72C58.22,29.16,49.84,20.78,39.5,20.78
				 M39.5,51.65c-6.71,0-12.15-5.44-12.15-12.15c0-6.71,5.44-12.15,12.15-12.15s12.15,5.44,12.15,12.15
				C51.65,46.21,46.21,51.65,39.5,51.65"/>
			<path style="clip-path:url(#SVGID_00000141413957993986085000000012267427359069874109_);fill:#8F8F8F;" d="M63.34,20.04
				c0,2.42-1.96,4.38-4.38,4.38c-2.42,0-4.38-1.96-4.38-4.38c0-2.42,1.96-4.38,4.38-4.38C61.38,15.66,63.34,17.62,63.34,20.04"/>
		</g>
	</g>
</g>
</svg>
