<?xml version="1.0" encoding="UTF-8"?> <svg xmlns="http://www.w3.org/2000/svg" xmlns:xlink="http://www.w3.org/1999/xlink" width="1024px" height="1024px" viewBox="0 0 1024 1024"><!-- Generator: Sketch 50.2 (55047) - http://www.bohemiancoding.com/sketch --><title>White</title><desc>Created with Sketch.</desc><defs><linearGradient x1="50.0007039%" y1="100.002858%" x2="50.0007039%" y2="0.00300051009%" id="linearGradient-1"><stop stop-color="#FFFFFF" offset="0%"></stop><stop stop-color="#FFFFFF" offset="100%"></stop></linearGradient></defs><g id="White" stroke="none" stroke-width="1" fill="none" fill-rule="evenodd"><g id="Group" transform="translate(3.000000, 1.000000)"><path d="M4.83265471,506.350843 C4.80200403,595.557473 28.1111204,682.650666 72.4188752,759.408739 L0.579507245,1021.69103 L269.006532,951.30976 C342.966636,991.641683 426.229952,1012.8972 510.971799,1012.93223 L511.188061,1012.93223 C790.240657,1012.93223 1017.42062,785.825251 1017.53738,506.743464 C1017.58409,371.479071 964.955401,244.30062 869.363212,148.626696 C773.756427,52.952771 646.634899,0.233592369 511.188061,0.175210111 C232.077083,0.175210111 4.94091001,227.238406 4.8241455,506.334788 L4.83265471,506.350843 Z M164.674767,746.183698 L154.654766,730.268694 C112.520291,663.280892 90.2824887,585.86018 90.3131394,506.372736 C90.4050914,274.405431 279.194338,85.6701882 511.33679,85.6701882 C623.754746,85.7139748 729.409118,129.540076 808.881966,209.055251 C888.346057,288.576265 932.071449,394.287559 932.040798,506.702596 C931.937826,738.684497 743.145004,927.434336 511.177698,927.434336 L511.012929,927.434336 C435.482343,927.390549 361.408394,907.115851 296.808426,868.78206 L281.433458,859.668298 L122.137469,901.432046 L164.674767,746.183698 Z M511.188061,1012.93223 L511.193209,1012.93223 L511.188061,1012.93223 C511.182912,1012.93223 511.177763,1012.93223 511.188061,1012.93223 Z" id="Shape" fill="url(#linearGradient-1)" fill-rule="nonzero"></path><path d="M384.638432,294.715159 C375.159196,273.645003 365.185463,273.223191 356.169783,272.852463 C348.791288,272.538659 340.35257,272.559093 331.923632,272.559093 C323.484476,272.559093 309.777782,275.725746 298.187444,288.386523 C286.586744,301.047883 253.901583,331.653614 253.901583,393.899317 C253.901583,456.150859 299.244163,516.300639 305.561123,524.750012 C311.889176,533.184059 393.089263,665.009007 521.677645,715.718376 C628.555125,757.863068 650.303976,749.480836 673.500706,747.368858 C696.697437,745.262864 748.356977,716.773636 758.896434,687.229294 C769.441584,657.689331 769.441584,632.367487 766.280039,627.079514 C763.118493,621.806866 754.679338,618.640212 742.028049,612.31756 C729.371797,605.989507 667.171778,575.379105 655.577061,571.156609 C643.976361,566.939512 635.54173,564.833518 627.102575,577.500133 C618.668528,590.15113 594.437702,618.64065 587.053805,627.079806 C579.67531,635.534432 572.291852,636.589983 559.640416,630.261785 C546.984165,623.913152 506.235246,610.56653 457.896197,567.470207 C420.283427,533.935438 394.892983,492.521984 387.509087,479.854493 C380.130592,467.203496 386.721365,460.350441 393.064889,454.042238 C398.749423,448.373175 405.721141,439.270067 412.049339,431.886171 C418.361921,424.497458 420.467915,419.224811 424.685011,410.785364 C428.907216,402.340954 426.796114,394.952095 423.634569,388.623459 C420.467915,382.295406 395.881103,319.729475 384.630842,294.711219" id="Shape" fill="#FFFFFF"></path></g></g></svg> 