<svg id="Layer_1" data-name="Layer 1" xmlns="http://www.w3.org/2000/svg" xmlns:xlink="http://www.w3.org/1999/xlink" viewBox="0 0 32 32"><defs><style>.cls-1{fill:none;}.cls-2{clip-path:url(#clip-path);}.cls-3{fill:url(#linear-gradient);}.cls-4{clip-path:url(#clip-path-2);}.cls-5{fill:url(#linear-gradient-2);}.cls-6{clip-path:url(#clip-path-3);}.cls-7{fill:url(#linear-gradient-3);}.cls-8{clip-path:url(#clip-path-4);}.cls-9{fill:url(#linear-gradient-4);}.cls-10{clip-path:url(#clip-path-5);}.cls-11{fill:url(#linear-gradient-5);}.cls-12{clip-path:url(#clip-path-6);}.cls-13{fill:url(#linear-gradient-6);}.cls-14{clip-path:url(#clip-path-7);}.cls-15{fill:url(#linear-gradient-7);}.cls-16{clip-path:url(#clip-path-8);}.cls-17{fill:url(#linear-gradient-8);}.cls-18{clip-path:url(#clip-path-9);}.cls-19{fill:url(#linear-gradient-9);}.cls-20{clip-path:url(#clip-path-10);}.cls-21{fill:url(#linear-gradient-10);}.cls-22{clip-path:url(#clip-path-11);}.cls-23{fill:url(#linear-gradient-11);}.cls-24{clip-path:url(#clip-path-12);}.cls-25{fill:url(#linear-gradient-12);}</style><clipPath id="clip-path"><path class="cls-1" d="M1.76,8.55c2.91.14,4,2.55,5.14,5.08.09.18.18.39.28.62a17.38,17.38,0,0,0,1,1.87c1.15.36,1.9-1.18,2.11-1.51-.21-.37-.43-.8-.66-1.25-1.3-2.53-3-5.9-5.4-5.89A3.74,3.74,0,0,0,1.76,8.55"/></clipPath><linearGradient id="linear-gradient" x1="-716.66" y1="-373.13" x2="-716.36" y2="-373.13" gradientTransform="matrix(0, -62.72, -62.72, 0, -23397.96, -44932.79)" gradientUnits="userSpaceOnUse"><stop offset="0" stop-color="#2f50a1"/><stop offset="1" stop-color="#2a9ec8"/></linearGradient><clipPath id="clip-path-2"><path class="cls-1" d="M10.24,14.61c-.21.33-1,1.87-2.11,1.51a2.94,2.94,0,0,0,2.07,1.67c1.64.09,2.8-2.95,3.37-4.16,1.18-2.53,2.24-4.94,5.14-5.08a3.74,3.74,0,0,0-2.42-1.08c-2.81,0-4.69,4.67-6,7.14"/></clipPath><linearGradient id="linear-gradient-2" x1="-709.96" y1="-353.94" x2="-709.66" y2="-353.94" gradientTransform="matrix(-53.59, 0, 0, 53.59, -38031.97, 18980.8)" gradientUnits="userSpaceOnUse"><stop offset="0" stop-color="#2b3c95"/><stop offset="1" stop-color="#209ac6"/></linearGradient><clipPath id="clip-path-3"><path class="cls-1" d="M8.39,7.8A1.85,1.85,0,1,0,10.24,6,1.85,1.85,0,0,0,8.39,7.8"/></clipPath><linearGradient id="linear-gradient-3" x1="-762.71" y1="-400.57" x2="-762.41" y2="-400.57" gradientTransform="matrix(0, -12.26, -12.26, 0, -4900.22, -9342.15)" xlink:href="#linear-gradient"/><clipPath id="clip-path-4"><path class="cls-1" d="M14.05,8.48C17,8.62,18,11,19.2,13.56l.27.61a16.5,16.5,0,0,0,1,1.87c1.15.36,1.9-1.18,2.11-1.5-.21-.37-.43-.8-.66-1.25-1.3-2.53-3-5.9-5.4-5.9a3.71,3.71,0,0,0-2.42,1.09"/></clipPath><linearGradient id="linear-gradient-4" x1="-716.4" y1="-372.75" x2="-716.1" y2="-372.75" gradientTransform="matrix(0, -62.72, -62.72, 0, -23362.26, -44916.64)" gradientUnits="userSpaceOnUse"><stop offset="0" stop-color="#0a8e90"/><stop offset="1" stop-color="#0da9b1"/></linearGradient><clipPath id="clip-path-5"><path class="cls-1" d="M22.53,14.54c-.21.32-1,1.86-2.11,1.5a3,3,0,0,0,2.07,1.68c1.64.09,2.8-2.95,3.37-4.16C27.05,11,28.1,8.62,31,8.48a3.71,3.71,0,0,0-2.41-1.09c-2.82,0-4.69,4.68-6.06,7.15"/></clipPath><linearGradient id="linear-gradient-5" x1="-709.54" y1="-354.27" x2="-709.23" y2="-354.27" gradientTransform="matrix(-53.59, 0, 0, 53.59, -37997.17, 18998.17)" gradientUnits="userSpaceOnUse"><stop offset="0" stop-color="#0b8789"/><stop offset="1" stop-color="#5dafa6"/></linearGradient><clipPath id="clip-path-6"><path class="cls-1" d="M20.68,7.72a1.85,1.85,0,1,0,1.85-1.84,1.85,1.85,0,0,0-1.85,1.84"/></clipPath><linearGradient id="linear-gradient-6" x1="-713.8" y1="-381.13" x2="-713.5" y2="-381.13" gradientTransform="matrix(0, -49.52, -49.52, 0, -18850.78, -35334.82)" gradientUnits="userSpaceOnUse"><stop offset="0" stop-color="#58aea4"/><stop offset="0.29" stop-color="#259694"/><stop offset="1" stop-color="#259694"/></linearGradient><clipPath id="clip-path-7"><path class="cls-1" d="M9.7,10.84c2.28.11,3.1,2,4,4l.22.49a13.39,13.39,0,0,0,.74,1.46c.9.29,1.49-.92,1.65-1.17l-.51-1c-1-2-2.36-4.63-4.24-4.63a2.92,2.92,0,0,0-1.89.85"/></clipPath><linearGradient id="linear-gradient-7" x1="-719.7" y1="-374.32" x2="-719.4" y2="-374.32" gradientTransform="matrix(0, -49.18, -49.18, 0, -18397.48, -35378.72)" gradientUnits="userSpaceOnUse"><stop offset="0" stop-color="#faa719"/><stop offset="0.31" stop-color="#ec753f"/><stop offset="0.47" stop-color="#e7614e"/><stop offset="0.71" stop-color="#c24372"/><stop offset="1" stop-color="#c24372"/></linearGradient><clipPath id="clip-path-8"><path class="cls-1" d="M16.34,15.6c-.16.25-.75,1.46-1.65,1.17a2.32,2.32,0,0,0,1.63,1.32c1.28.07,2.19-2.32,2.64-3.27.93-2,1.75-3.87,4-4A2.92,2.92,0,0,0,21.1,10c-2.21,0-3.68,3.67-4.76,5.61"/></clipPath><linearGradient id="linear-gradient-8" x1="-711.16" y1="-350.32" x2="-710.86" y2="-350.32" gradientTransform="matrix(-42.02, 0, 0, 42.02, -29864.57, 14735.6)" gradientUnits="userSpaceOnUse"><stop offset="0" stop-color="#fba919"/><stop offset="0.11" stop-color="#f9a41d"/><stop offset="0.22" stop-color="#f59729"/><stop offset="0.35" stop-color="#ed803c"/><stop offset="0.47" stop-color="#e36157"/><stop offset="0.55" stop-color="#db4a6b"/><stop offset="1" stop-color="#e1575c"/></linearGradient><clipPath id="clip-path-9"><path class="cls-1" d="M14.9,10.25A1.45,1.45,0,1,0,16.34,8.8a1.45,1.45,0,0,0-1.44,1.45"/></clipPath><linearGradient id="linear-gradient-9" x1="-716.13" y1="-385.12" x2="-715.83" y2="-385.12" gradientTransform="matrix(0, -38.83, -38.83, 0, -14937.72, -27793.77)" xlink:href="#linear-gradient-8"/><clipPath id="clip-path-10"><path class="cls-1" d="M22.65,25.13A18.25,18.25,0,0,0,30.51,19c.62-.81,0-1.09-.56-1-1.24.14-3.75,2.45-4.9,3.19A11.5,11.5,0,0,1,19.7,23c-1.4.13-3.08.11-3.13-.68,0-.3.31-.59,1.7-1.16a15.71,15.71,0,0,1,2.87-.83c2.52-.51,2.69-2.19,0-2.39-2-.14-4.39.92-6.37,1.33-6,1.3-9.68.05-12.26-2.49C5.92,24.07,15,28.13,22.65,25.13"/></clipPath><linearGradient id="linear-gradient-10" x1="-713.13" y1="-366.1" x2="-712.83" y2="-366.1" gradientTransform="matrix(0, -90.51, -90.51, 0, -33117.76, -64508.51)" gradientUnits="userSpaceOnUse"><stop offset="0" stop-color="#693a88"/><stop offset="1" stop-color="#a994c1"/></linearGradient><clipPath id="clip-path-11"><path class="cls-1" d="M1.31,13.29A17.58,17.58,0,0,0,2.52,16.8c2.58,2.54,6.22,3.79,12.26,2.49a8.26,8.26,0,0,1-1,.15C9.06,19.72,5.8,17.05,3,13.85c-.68-.76-1.33-1.55-2-2.34a15.79,15.79,0,0,0,.31,1.78"/></clipPath><linearGradient id="linear-gradient-11" x1="-713.43" y1="-366.15" x2="-713.13" y2="-366.15" gradientTransform="matrix(0, -91.64, -91.64, 0, -33545.88, -65355.31)" gradientUnits="userSpaceOnUse"><stop offset="0" stop-color="#774992"/><stop offset="0.56" stop-color="#8d6ba9"/><stop offset="1" stop-color="#8d6ba9"/></linearGradient><clipPath id="clip-path-12"><path class="cls-1" d="M14.78,19.29a8.26,8.26,0,0,1-1,.15A10.27,10.27,0,0,1,10.1,19a9.91,9.91,0,0,1-6.54-1.6l-1-.62c2.58,2.54,6.22,3.79,12.26,2.49"/></clipPath><linearGradient id="linear-gradient-12" x1="-712.77" y1="-366.34" x2="-712.47" y2="-366.34" gradientTransform="matrix(0, -100.22, -100.22, 0, -36703.8, -71409.51)" gradientUnits="userSpaceOnUse"><stop offset="0" stop-color="#6b3887"/><stop offset="1" stop-color="#a496c1"/></linearGradient></defs><g class="cls-2"><rect class="cls-3" x="-0.06" y="5.85" width="12.11" height="12.24" transform="translate(-5.79 5.62) rotate(-35.06)"/></g><g class="cls-4"><rect class="cls-5" x="6.04" y="5.31" width="14.75" height="14.72" transform="translate(-4.96 10.98) rotate(-38.11)"/></g><g class="cls-6"><rect class="cls-7" x="7.74" y="5.3" width="5" height="5" transform="translate(-2.46 5.72) rotate(-28.01)"/></g><g class="cls-8"><rect class="cls-9" x="12.23" y="5.78" width="12.11" height="12.24" transform="translate(-3.52 12.67) rotate(-35.06)"/></g><g class="cls-10"><rect class="cls-11" x="18.33" y="5.24" width="14.75" height="14.72" transform="matrix(0.79, -0.62, 0.62, 0.79, -2.3, 18.55)"/></g><g class="cls-12"><rect class="cls-13" x="20.65" y="5.85" width="3.75" height="3.75" transform="translate(-0.1 0.3) rotate(-0.77)"/></g><g class="cls-14"><rect class="cls-15" x="8.27" y="8.72" width="9.5" height="9.6" transform="translate(-5.41 9.93) rotate(-35.06)"/></g><g class="cls-16"><rect class="cls-17" x="13.06" y="8.3" width="11.57" height="11.55" transform="translate(-4.67 14.63) rotate(-38.11)"/></g><g class="cls-18"><rect class="cls-19" x="14.88" y="8.78" width="2.94" height="2.94" transform="translate(-0.14 0.22) rotate(-0.77)"/></g><g class="cls-20"><rect class="cls-21" x="6.84" y="7.1" width="19.98" height="30.74" transform="translate(-9.88 31.12) rotate(-71.12)"/></g><g class="cls-22"><rect class="cls-23" x="1.37" y="8.06" width="13.05" height="15.97" transform="translate(-9.85 18.32) rotate(-71.12)"/></g><g class="cls-24"><rect class="cls-25" x="4.88" y="12.29" width="7.54" height="12.82" transform="translate(-11.84 20.83) rotate(-71.12)"/></g></svg>