<?xml version="1.0" encoding="utf-8"?>
<!-- Generator: Adobe Illustrator 25.0.0, SVG Export Plug-In . SVG Version: 6.00 Build 0)  -->
<svg version="1.1" id="Layer_1" xmlns="http://www.w3.org/2000/svg" xmlns:xlink="http://www.w3.org/1999/xlink" x="0px" y="0px"
	 viewBox="0 0 257 100" style="enable-background:new 0 0 257 100;" xml:space="preserve">
<style type="text/css">
	.st0{clip-path:url(#SVGID_2_);fill:url(#SVGID_3_);}
	.st1{clip-path:url(#SVGID_5_);fill:url(#SVGID_6_);}
	.st2{clip-path:url(#SVGID_8_);fill:url(#SVGID_9_);}
	.st3{clip-path:url(#SVGID_11_);fill:url(#SVGID_12_);}
	.st4{clip-path:url(#SVGID_14_);fill:url(#SVGID_15_);}
	.st5{clip-path:url(#SVGID_17_);fill:url(#SVGID_18_);}
	.st6{clip-path:url(#SVGID_20_);fill:url(#SVGID_21_);}
	.st7{clip-path:url(#SVGID_23_);fill:url(#SVGID_24_);}
	.st8{clip-path:url(#SVGID_26_);fill:url(#SVGID_27_);}
	.st9{clip-path:url(#SVGID_29_);fill:url(#SVGID_30_);}
	.st10{clip-path:url(#SVGID_32_);fill:url(#SVGID_33_);}
	.st11{clip-path:url(#SVGID_35_);fill:url(#SVGID_36_);}
	.st12{fill:#693888;}
	.st13{fill:#AC97C4;}
	.st14{filter:url(#Adobe_OpacityMaskFilter);}
	.st15{clip-path:url(#SVGID_38_);}
	.st16{enable-background:new    ;}
	.st17{clip-path:url(#SVGID_38_);fill:url(#SVGID_40_);}
	.st18{clip-path:url(#SVGID_38_);mask:url(#SVGID_39_);}
	.st19{clip-path:url(#SVGID_42_);}
	.st20{clip-path:url(#SVGID_44_);fill:url(#SVGID_45_);}
	.st21{filter:url(#Adobe_OpacityMaskFilter_1_);}
	.st22{clip-path:url(#SVGID_47_);}
	.st23{clip-path:url(#SVGID_47_);fill:url(#SVGID_49_);}
	.st24{clip-path:url(#SVGID_47_);mask:url(#SVGID_48_);}
	.st25{clip-path:url(#SVGID_51_);}
	.st26{clip-path:url(#SVGID_53_);fill:url(#SVGID_54_);}
	.st27{filter:url(#Adobe_OpacityMaskFilter_2_);}
	.st28{clip-path:url(#SVGID_56_);}
	.st29{clip-path:url(#SVGID_56_);fill:url(#SVGID_58_);}
	.st30{clip-path:url(#SVGID_56_);mask:url(#SVGID_57_);}
	.st31{clip-path:url(#SVGID_60_);}
	.st32{clip-path:url(#SVGID_62_);fill:url(#SVGID_63_);}
	.st33{filter:url(#Adobe_OpacityMaskFilter_3_);}
	.st34{clip-path:url(#SVGID_65_);}
	.st35{clip-path:url(#SVGID_65_);fill:url(#SVGID_67_);}
	.st36{clip-path:url(#SVGID_65_);mask:url(#SVGID_66_);}
	.st37{clip-path:url(#SVGID_69_);}
	.st38{clip-path:url(#SVGID_71_);fill:url(#SVGID_72_);}
	.st39{filter:url(#Adobe_OpacityMaskFilter_4_);}
	.st40{clip-path:url(#SVGID_74_);}
	.st41{clip-path:url(#SVGID_74_);fill:url(#SVGID_76_);}
	.st42{clip-path:url(#SVGID_74_);mask:url(#SVGID_75_);}
	.st43{clip-path:url(#SVGID_78_);}
	.st44{clip-path:url(#SVGID_80_);fill:url(#SVGID_81_);}
	.st45{filter:url(#Adobe_OpacityMaskFilter_5_);}
	.st46{clip-path:url(#SVGID_83_);}
	.st47{clip-path:url(#SVGID_83_);fill:url(#SVGID_85_);}
	.st48{clip-path:url(#SVGID_83_);mask:url(#SVGID_84_);}
	.st49{clip-path:url(#SVGID_87_);}
	.st50{clip-path:url(#SVGID_89_);fill:url(#SVGID_90_);}
	.st51{filter:url(#Adobe_OpacityMaskFilter_6_);}
	.st52{clip-path:url(#SVGID_92_);}
	.st53{clip-path:url(#SVGID_92_);fill:url(#SVGID_94_);}
	.st54{clip-path:url(#SVGID_92_);mask:url(#SVGID_93_);}
	.st55{clip-path:url(#SVGID_96_);}
	.st56{clip-path:url(#SVGID_98_);fill:url(#SVGID_99_);}
	.st57{filter:url(#Adobe_OpacityMaskFilter_7_);}
	.st58{clip-path:url(#SVGID_101_);}
	.st59{clip-path:url(#SVGID_101_);fill:url(#SVGID_103_);}
	.st60{clip-path:url(#SVGID_101_);mask:url(#SVGID_102_);}
	.st61{clip-path:url(#SVGID_105_);}
	.st62{clip-path:url(#SVGID_107_);fill:url(#SVGID_108_);}
	.st63{filter:url(#Adobe_OpacityMaskFilter_8_);}
	.st64{clip-path:url(#SVGID_110_);}
	.st65{clip-path:url(#SVGID_110_);fill:url(#SVGID_112_);}
	.st66{clip-path:url(#SVGID_110_);mask:url(#SVGID_111_);}
	.st67{clip-path:url(#SVGID_114_);}
	.st68{clip-path:url(#SVGID_116_);fill:url(#SVGID_117_);}
</style>
<g>
	<defs>
		<path id="SVGID_1_" d="M11.82,38.75c8.8,0.43,11.99,7.72,15.58,15.39c0.26,0.55,0.54,1.18,0.85,1.87c0.77,1.73,1.72,3.8,2.86,5.66
			c3.49,1.1,5.75-3.57,6.39-4.55c-0.63-1.13-1.29-2.42-1.99-3.78c-3.94-7.66-9.12-17.88-16.37-17.88
			C16.9,35.45,14.47,36.43,11.82,38.75"/>
	</defs>
	<clipPath id="SVGID_2_">
		<use xlink:href="#SVGID_1_"  style="overflow:visible;"/>
	</clipPath>
	
		<linearGradient id="SVGID_3_" gradientUnits="userSpaceOnUse" x1="-573.9882" y1="-336.1147" x2="-572.7098" y2="-336.1147" gradientTransform="matrix(-25.7476 -36.6914 -36.6914 25.7476 -27074.0977 -12339.2559)">
		<stop  offset="0" style="stop-color:#2C4FA1"/>
		<stop  offset="1" style="stop-color:#2B9EC8"/>
	</linearGradient>
	<polygon class="st0" points="20.29,74.84 -1.03,44.46 29.02,23.38 50.33,53.75 	"/>
</g>
<g>
	<defs>
		<path id="SVGID_4_" d="M37.49,57.11c-0.64,0.99-2.9,5.65-6.39,4.55c1.65,2.69,3.72,4.94,6.29,5.08c4.97,0.27,8.48-8.94,10.2-12.61
			c3.59-7.67,6.78-14.96,15.58-15.39c-2.65-2.32-5.08-3.29-7.32-3.29C47.32,35.45,41.64,49.63,37.49,57.11"/>
	</defs>
	<clipPath id="SVGID_5_">
		<use xlink:href="#SVGID_4_"  style="overflow:visible;"/>
	</clipPath>
	
		<linearGradient id="SVGID_6_" gradientUnits="userSpaceOnUse" x1="-564.2109" y1="-313.1825" x2="-562.9325" y2="-313.1825" gradientTransform="matrix(-30.1346 23.635 23.635 30.1346 -9548.1484 22820.1309)">
		<stop  offset="0" style="stop-color:#2A3896"/>
		<stop  offset="1" style="stop-color:#229AC5"/>
	</linearGradient>
	<polygon class="st1" points="78.49,54.99 43.32,82.58 15.78,47.47 50.96,19.88 	"/>
</g>
<g>
	<defs>
		<path id="SVGID_7_" d="M31.89,36.46c0,3.09,2.52,5.6,5.6,5.6c3.08,0,5.6-2.52,5.6-5.6s-2.52-5.6-5.6-5.6
			C34.41,30.86,31.89,33.37,31.89,36.46"/>
	</defs>
	<clipPath id="SVGID_8_">
		<use xlink:href="#SVGID_7_"  style="overflow:visible;"/>
	</clipPath>
	
		<linearGradient id="SVGID_9_" gradientUnits="userSpaceOnUse" x1="-631.2021" y1="-366.8742" x2="-629.9237" y2="-366.8742" gradientTransform="matrix(-4.1147 -7.7338 -7.7338 4.1147 -5397.3311 -3336.0955)">
		<stop  offset="0" style="stop-color:#2C4FA1"/>
		<stop  offset="1" style="stop-color:#2B9EC8"/>
	</linearGradient>
	<polygon class="st2" points="34.36,46.71 27.24,33.33 40.62,26.21 47.74,39.59 	"/>
</g>
<g>
	<defs>
		<path id="SVGID_10_" d="M49.06,38.52c8.8,0.43,11.99,7.72,15.58,15.39c0.25,0.55,0.54,1.18,0.85,1.87
			c0.78,1.73,1.72,3.8,2.86,5.66c3.49,1.09,5.76-3.57,6.39-4.56c-0.63-1.13-1.29-2.42-1.99-3.78c-3.94-7.66-9.12-17.88-16.37-17.88
			C54.15,35.23,51.71,36.2,49.06,38.52"/>
	</defs>
	<clipPath id="SVGID_11_">
		<use xlink:href="#SVGID_10_"  style="overflow:visible;"/>
	</clipPath>
	
		<linearGradient id="SVGID_12_" gradientUnits="userSpaceOnUse" x1="-574.0912" y1="-336.2634" x2="-572.8128" y2="-336.2634" gradientTransform="matrix(-25.7476 -36.6914 -36.6914 25.7476 -27044.9609 -12339.4297)">
		<stop  offset="0" style="stop-color:#008D90"/>
		<stop  offset="1" style="stop-color:#00A9B1"/>
	</linearGradient>
	<polygon class="st3" points="57.54,74.61 36.22,44.24 66.27,23.16 87.58,53.53 	"/>
</g>
<g>
	<defs>
		<path id="SVGID_13_" d="M74.74,56.89c-0.64,0.99-2.9,5.65-6.39,4.56c1.66,2.69,3.72,4.94,6.29,5.08
			c4.97,0.27,8.48-8.94,10.2-12.61c3.59-7.67,6.78-14.96,15.58-15.39c-2.65-2.32-5.08-3.29-7.32-3.29
			C84.56,35.23,78.88,49.41,74.74,56.89"/>
	</defs>
	<clipPath id="SVGID_14_">
		<use xlink:href="#SVGID_13_"  style="overflow:visible;"/>
	</clipPath>
	
		<linearGradient id="SVGID_15_" gradientUnits="userSpaceOnUse" x1="-564.3784" y1="-313.0528" x2="-563.1" y2="-313.0528" gradientTransform="matrix(-30.1346 23.635 23.635 30.1346 -9519.0137 22819.957)">
		<stop  offset="0" style="stop-color:#008789"/>
		<stop  offset="1" style="stop-color:#5DAFA6"/>
	</linearGradient>
	<polygon class="st4" points="115.74,54.77 80.56,82.36 53.02,47.25 88.2,19.66 	"/>
</g>
<g>
	<defs>
		<path id="SVGID_16_" d="M69.14,36.24c0,3.09,2.52,5.6,5.6,5.6s5.6-2.52,5.6-5.6c0-3.08-2.52-5.6-5.6-5.6S69.14,33.15,69.14,36.24"
			/>
	</defs>
	<clipPath id="SVGID_17_">
		<use xlink:href="#SVGID_16_"  style="overflow:visible;"/>
	</clipPath>
	
		<linearGradient id="SVGID_18_" gradientUnits="userSpaceOnUse" x1="-570.9091" y1="-347.3092" x2="-569.6306" y2="-347.3092" gradientTransform="matrix(-0.4746 -35.3845 -35.3845 0.4746 -12485.4316 -19987.4023)">
		<stop  offset="0" style="stop-color:#58AEA4"/>
		<stop  offset="0.2907" style="stop-color:#239694"/>
		<stop  offset="1" style="stop-color:#239694"/>
	</linearGradient>
	<polygon class="st5" points="69.14,41.99 68.99,30.64 80.34,30.48 80.49,41.84 	"/>
</g>
<g>
	<defs>
		<path id="SVGID_19_" d="M35.87,45.69c6.9,0.34,9.4,6.05,12.22,12.07c0.2,0.43,0.42,0.93,0.66,1.47c0.61,1.36,1.35,2.98,2.24,4.44
			c2.73,0.86,4.51-2.8,5.01-3.57c-0.49-0.89-1.01-1.9-1.56-2.97c-3.09-6.01-7.15-14.02-12.84-14.02
			C39.85,43.1,37.95,43.87,35.87,45.69"/>
	</defs>
	<clipPath id="SVGID_20_">
		<use xlink:href="#SVGID_19_"  style="overflow:visible;"/>
	</clipPath>
	
		<linearGradient id="SVGID_21_" gradientUnits="userSpaceOnUse" x1="-578.1844" y1="-337.6211" x2="-576.906" y2="-337.6211" gradientTransform="matrix(-20.1897 -28.7712 -28.7712 20.1897 -21331.3496 -9750.7207)">
		<stop  offset="0" style="stop-color:#FFA800"/>
		<stop  offset="0.0619" style="stop-color:#FB9D0C"/>
		<stop  offset="0.3313" style="stop-color:#ED703B"/>
		<stop  offset="0.4659" style="stop-color:#E75F4D"/>
		<stop  offset="0.7076" style="stop-color:#C24171"/>
		<stop  offset="1" style="stop-color:#C24171"/>
	</linearGradient>
	<polygon class="st6" points="42.51,73.99 25.8,50.17 49.36,33.64 66.07,57.45 	"/>
</g>
<g>
	<defs>
		<path id="SVGID_22_" d="M56,60.09c-0.5,0.77-2.28,4.43-5.01,3.57c1.3,2.11,2.92,3.87,4.93,3.98c3.9,0.21,6.65-7.01,8-9.89
			c2.82-6.01,5.32-11.73,12.21-12.07c-2.08-1.82-3.98-2.58-5.74-2.58C63.71,43.11,59.25,54.22,56,60.09"/>
	</defs>
	<clipPath id="SVGID_23_">
		<use xlink:href="#SVGID_22_"  style="overflow:visible;"/>
	</clipPath>
	
		<linearGradient id="SVGID_24_" gradientUnits="userSpaceOnUse" x1="-565.7104" y1="-308.1843" x2="-564.4319" y2="-308.1843" gradientTransform="matrix(-23.6298 18.5332 18.5332 23.6298 -7588.5479 17819.1719)">
		<stop  offset="0" style="stop-color:#FFA900"/>
		<stop  offset="0.0995" style="stop-color:#FDA505"/>
		<stop  offset="0.2111" style="stop-color:#F99812"/>
		<stop  offset="0.3284" style="stop-color:#F18429"/>
		<stop  offset="0.4491" style="stop-color:#E66748"/>
		<stop  offset="0.5537" style="stop-color:#DA4869"/>
		<stop  offset="1" style="stop-color:#E0555B"/>
	</linearGradient>
	<polygon class="st7" points="88.15,58.43 60.57,80.06 38.98,52.53 66.56,30.89 	"/>
</g>
<g>
	<defs>
		<path id="SVGID_25_" d="M51.61,43.89c0,2.42,1.97,4.39,4.39,4.39c2.42,0,4.39-1.97,4.39-4.39S58.42,39.5,56,39.5
			C53.58,39.5,51.61,41.47,51.61,43.89"/>
	</defs>
	<clipPath id="SVGID_26_">
		<use xlink:href="#SVGID_25_"  style="overflow:visible;"/>
	</clipPath>
	
		<linearGradient id="SVGID_27_" gradientUnits="userSpaceOnUse" x1="-574.2238" y1="-351.651" x2="-572.9453" y2="-351.651" gradientTransform="matrix(-0.3722 -27.7464 -27.7464 0.3722 -9914.6357 -15747.8018)">
		<stop  offset="0" style="stop-color:#FFA900"/>
		<stop  offset="0.0995" style="stop-color:#FDA505"/>
		<stop  offset="0.2111" style="stop-color:#F99812"/>
		<stop  offset="0.3284" style="stop-color:#F18429"/>
		<stop  offset="0.4491" style="stop-color:#E66748"/>
		<stop  offset="0.5537" style="stop-color:#DA4869"/>
		<stop  offset="1" style="stop-color:#E0555B"/>
	</linearGradient>
	<polygon class="st8" points="51.61,48.41 51.49,39.5 60.4,39.38 60.52,48.29 	"/>
</g>
<g>
	<defs>
		<path id="SVGID_28_" d="M58.86,92h0.29c5.39-0.02,10.8-0.98,15.98-3.03c9.76-3.85,17.42-10.23,23.81-18.56
			c1.88-2.45,0.15-3.3-1.7-3.08c-3.76,0.44-11.37,7.45-14.86,9.67c-4.23,2.69-9.25,4.99-16.22,5.61c-4.22,0.37-9.32,0.32-9.49-2.08
			c-0.06-0.91,0.94-1.79,5.18-3.5c2.77-1.12,5-1.79,8.69-2.53c7.65-1.55,8.15-6.63,0.04-7.23c-6.03-0.44-13.3,2.79-19.32,4.03
			c-18.29,3.92-29.32,0.15-37.14-7.54C22.06,80.74,40.33,91.95,58.86,92"/>
	</defs>
	<clipPath id="SVGID_29_">
		<use xlink:href="#SVGID_28_"  style="overflow:visible;"/>
	</clipPath>
	
		<linearGradient id="SVGID_30_" gradientUnits="userSpaceOnUse" x1="-569.6957" y1="-327.7068" x2="-568.4172" y2="-327.7068" gradientTransform="matrix(-61.1968 -20.9331 -20.9331 61.1968 -41630.9062 8218.9863)">
		<stop  offset="0" style="stop-color:#683987"/>
		<stop  offset="1" style="stop-color:#AA94C2"/>
	</linearGradient>
	<polygon class="st9" points="91.74,118.55 5.46,89.04 23.19,37.21 109.47,66.72 	"/>
</g>
<g>
	<defs>
		<path id="SVGID_31_" d="M10.44,53.1c0.83,3.6,2.05,7.19,3.67,10.65c7.83,7.68,18.85,11.46,37.14,7.54
			c-1.09,0.22-2.13,0.38-3.12,0.44c-14.2,0.85-24.08-7.24-32.67-16.93c-2.05-2.31-4.02-4.7-5.96-7.09
			C9.71,49.5,10.03,51.3,10.44,53.1"/>
	</defs>
	<clipPath id="SVGID_32_">
		<use xlink:href="#SVGID_31_"  style="overflow:visible;"/>
	</clipPath>
	
		<linearGradient id="SVGID_33_" gradientUnits="userSpaceOnUse" x1="-569.4042" y1="-327.8422" x2="-568.1257" y2="-327.8422" gradientTransform="matrix(-61.9626 -21.1951 -21.1951 61.9626 -42180.9805 8313.373)">
		<stop  offset="0" style="stop-color:#764891"/>
		<stop  offset="0.5572" style="stop-color:#8D6AA9"/>
		<stop  offset="1" style="stop-color:#8D6AA9"/>
	</linearGradient>
	<polygon class="st10" points="46.88,88 1.08,72.33 13.87,34.93 59.67,50.59 	"/>
</g>
<g>
	<defs>
		<path id="SVGID_34_" d="M51.25,71.29c-1.09,0.22-2.13,0.38-3.12,0.44c-4.01,0.24-7.67-0.23-11.05-1.25
			c-7.09,0.85-13.06-0.89-19.82-4.87c-1.05-0.62-2.1-1.24-3.14-1.85C21.94,71.44,32.96,75.21,51.25,71.29"/>
	</defs>
	<clipPath id="SVGID_35_">
		<use xlink:href="#SVGID_34_"  style="overflow:visible;"/>
	</clipPath>
	
		<linearGradient id="SVGID_36_" gradientUnits="userSpaceOnUse" x1="-568.4891" y1="-328.0649" x2="-567.2106" y2="-328.0649" gradientTransform="matrix(-67.7616 -23.1787 -23.1787 67.7616 -46086.3477 9125.2021)">
		<stop  offset="0" style="stop-color:#6A3787"/>
		<stop  offset="1" style="stop-color:#A596C1"/>
	</linearGradient>
	<polygon class="st11" points="47.36,86.59 10.6,74.01 18,52.38 54.76,64.96 	"/>
</g>
<path class="st12" d="M108.78,59.27c-1.45-0.52-2.49-1.09-3.13-1.73l1.95-3.5c0.52,0.47,1.32,0.95,2.41,1.45
	c1.09,0.5,2.14,0.76,3.15,0.76c1.3,0,2.36-0.31,3.19-0.92c0.82-0.61,1.23-1.46,1.23-2.54c0-0.83-0.22-1.56-0.66-2.17
	c-0.44-0.61-0.98-1.12-1.62-1.53c-0.64-0.41-1.55-0.9-2.73-1.49c-1.4-0.69-2.36-1.2-2.87-1.55c-2.38-1.6-3.57-3.81-3.57-6.63
	c0-2.33,0.77-4.12,2.32-5.36c1.55-1.24,3.5-1.86,5.86-1.86c2.53,0,4.68,0.72,6.45,2.17l-1.95,3.35c-0.47-0.49-1.12-0.92-1.97-1.27
	c-0.85-0.36-1.75-0.53-2.71-0.53c-1.23,0-2.19,0.28-2.89,0.83c-0.7,0.55-1.05,1.37-1.05,2.45c0,0.76,0.22,1.44,0.66,2.05
	c0.44,0.6,1,1.12,1.68,1.57c0.68,0.44,1.59,0.98,2.74,1.62c1.11,0.61,1.95,1.1,2.54,1.45c0.59,0.36,1.14,0.78,1.66,1.27
	c0.71,0.64,1.29,1.4,1.73,2.28c0.44,0.88,0.66,1.86,0.66,2.91c0,1.65-0.37,3.05-1.12,4.2c-0.75,1.15-1.78,2.03-3.1,2.62
	c-1.31,0.59-2.81,0.88-4.48,0.88C111.69,60.04,110.23,59.78,108.78,59.27"/>
<rect x="126.98" y="32.59" class="st12" width="4.13" height="27.08"/>
<polygon class="st12" points="137.52,32.59 149.38,32.59 149.38,36.2 141.61,36.2 141.61,43.68 147.87,43.68 147.87,47.37 
	141.61,47.37 141.61,56.03 150.6,56.03 150.6,59.67 137.52,59.67 "/>
<polygon class="st12" points="161.94,47.04 160.25,43.2 159.48,47.04 156.97,59.67 152.88,59.67 158.48,32.59 158.92,32.59 
	166.37,47.22 168.58,52.12 170.79,47.22 178.08,32.59 178.49,32.59 184.31,59.67 180.26,59.67 177.53,47.04 176.72,43.2 
	175.25,47.04 168.69,59.67 168.47,59.67 "/>
<path class="st12" d="M188.18,32.59h5.97c3.36,0,5.83,0.72,7.39,2.16c1.56,1.44,2.34,3.41,2.34,5.91c0,2.9-0.85,5.12-2.54,6.67
	c-1.69,1.55-4.21,2.32-7.55,2.32h-1.44v10.02h-4.16V32.59z M193.89,46c2.16,0,3.67-0.48,4.53-1.44c0.86-0.96,1.29-2.11,1.29-3.46
	c0-1.45-0.42-2.63-1.25-3.54c-0.84-0.91-2.24-1.36-4.2-1.36h-1.92V46H193.89z"/>
<path class="st12" d="M221.45,59.67l-5.45-10.24c-1.13,0.05-2.14,0.07-3.02,0.07h-1.03v10.17h-4.02V32.59h6.15
	c3.12,0,5.69,0.64,7.7,1.93c2.01,1.29,3.02,3.38,3.02,6.28c0,1.82-0.42,3.38-1.27,4.7c-0.85,1.31-2.11,2.33-3.78,3.04l6.45,11.13
	H221.45z M214.56,46.15c2.41,0,4.06-0.52,4.96-1.57c0.9-1.04,1.34-2.29,1.34-3.74c0-3.22-2.15-4.83-6.45-4.83h-2.47v10.13H214.56z"
	/>
<polygon class="st12" points="230.58,32.59 242.45,32.59 242.45,36.2 234.67,36.2 234.67,43.68 240.94,43.68 240.94,47.37 
	234.67,47.37 234.67,56.03 243.66,56.03 243.66,59.67 230.58,59.67 "/>
<path class="st13" d="M108,90.75c-1.09-0.27-2.01-0.72-2.75-1.36l1.72-3.93c0.46,0.53,0.97,0.93,1.55,1.2
	c0.57,0.27,1.28,0.4,2.12,0.4c0.79,0,1.43-0.14,1.91-0.42c0.48-0.28,0.85-0.79,1.09-1.53c0.24-0.74,0.36-1.8,0.36-3.17V62.7h4.24
	v20.32c0,2.85-0.64,4.92-1.93,6.21c-1.29,1.29-2.97,1.93-5.06,1.93C110.18,91.15,109.09,91.02,108,90.75"/>
<path class="st13" d="M126.48,87.98c-1.58-2.11-2.37-5.18-2.37-9.2V62.7h4.28v16.15c0,2.98,0.44,5.11,1.34,6.4
	c0.89,1.29,2.35,1.93,4.39,1.93c2.04,0,3.49-0.63,4.37-1.89c0.88-1.26,1.32-3.41,1.32-6.44V62.7h4.32v16.08c0,4-0.83,7.06-2.5,9.19
	c-1.67,2.13-4.17,3.19-7.5,3.19C130.61,91.15,128.06,90.1,126.48,87.98"/>
<polygon class="st13" points="153.9,72.59 154.02,75.65 154.02,90.77 149.74,90.77 149.74,62.66 150.28,62.66 166.77,81.07 
	166.62,77.86 166.62,62.7 170.9,62.7 170.9,90.77 170.33,90.77 "/>
<polygon class="st13" points="182.2,66.44 175.02,66.44 175.02,62.7 193.7,62.7 193.7,66.44 186.44,66.44 186.44,90.77 182.2,90.77 
	"/>
<path class="st13" d="M202.16,89.38c-2.15-1.18-3.86-2.87-5.14-5.06c-1.27-2.19-1.91-4.74-1.91-7.64c0-2.93,0.64-5.48,1.91-7.66
	c1.27-2.18,2.98-3.85,5.14-5.02c2.15-1.17,4.5-1.76,7.05-1.76c2.55,0,4.89,0.59,7.05,1.76c2.15,1.17,3.86,2.85,5.14,5.02
	c1.27,2.18,1.91,4.73,1.91,7.66c0,2.9-0.64,5.45-1.91,7.64c-1.27,2.19-2.99,3.88-5.14,5.06c-2.15,1.18-4.5,1.78-7.05,1.78
	C206.66,91.15,204.31,90.56,202.16,89.38 M214.02,86.06c1.45-0.83,2.6-2.04,3.46-3.63c0.85-1.59,1.28-3.5,1.28-5.71
	c0-2.24-0.43-4.16-1.28-5.75c-0.85-1.59-2-2.79-3.44-3.61c-1.44-0.81-3.05-1.22-4.83-1.22s-3.4,0.41-4.85,1.22
	c-1.45,0.81-2.6,2.02-3.44,3.61c-0.84,1.59-1.26,3.51-1.26,5.75c0,2.21,0.43,4.12,1.3,5.71c0.87,1.59,2.03,2.8,3.5,3.63
	c1.46,0.83,3.05,1.24,4.75,1.24C210.96,87.3,212.57,86.88,214.02,86.06"/>
<path class="st13" d="M229.98,90.35c-1.5-0.53-2.58-1.13-3.25-1.79l2.02-3.63c0.53,0.48,1.37,0.99,2.5,1.51
	c1.13,0.52,2.22,0.78,3.27,0.78c1.35,0,2.45-0.32,3.3-0.95c0.85-0.64,1.28-1.51,1.28-2.64c0-0.87-0.23-1.62-0.69-2.25
	c-0.46-0.64-1.02-1.16-1.68-1.58c-0.66-0.42-1.6-0.94-2.83-1.55c-1.45-0.71-2.44-1.25-2.98-1.6c-2.47-1.65-3.7-3.95-3.7-6.87
	c0-2.42,0.8-4.27,2.41-5.56c1.6-1.28,3.63-1.93,6.07-1.93c2.62,0,4.85,0.75,6.68,2.25l-2.02,3.48c-0.48-0.51-1.16-0.95-2.04-1.32
	c-0.88-0.37-1.81-0.55-2.81-0.55c-1.27,0-2.27,0.29-3,0.86c-0.72,0.57-1.09,1.42-1.09,2.54c0,0.79,0.23,1.5,0.69,2.12
	c0.46,0.62,1.04,1.16,1.74,1.62c0.7,0.46,1.65,1.02,2.85,1.68c1.15,0.64,2.02,1.14,2.63,1.51c0.61,0.37,1.18,0.81,1.72,1.32
	c0.74,0.66,1.34,1.45,1.79,2.37c0.46,0.92,0.69,1.92,0.69,3.02c0,1.71-0.39,3.16-1.17,4.35c-0.78,1.2-1.84,2.1-3.21,2.71
	c-1.36,0.61-2.91,0.92-4.64,0.92C233,91.15,231.48,90.89,229.98,90.35"/>
<g>
	<defs>
		<polygon id="SVGID_37_" points="199.18,16.52 199.18,18.32 202.26,18.32 202.26,26.55 204.48,26.55 204.48,18.32 207.56,18.32 
			207.56,16.52 		"/>
	</defs>
	<clipPath id="SVGID_38_">
		<use xlink:href="#SVGID_37_"  style="overflow:visible;"/>
	</clipPath>
	<defs>
		<filter id="Adobe_OpacityMaskFilter" filterUnits="userSpaceOnUse" x="199.18" y="16.52" width="8.39" height="10.03">
			<feColorMatrix  type="matrix" values="1 0 0 0 0  0 1 0 0 0  0 0 1 0 0  0 0 0 1 0"/>
		</filter>
	</defs>
	<mask maskUnits="userSpaceOnUse" x="199.18" y="16.52" width="8.39" height="10.03" id="SVGID_39_">
		<g class="st14">
			<rect x="199.18" y="16.52" class="st15" width="8.39" height="10.03"/>
			<g class="st16">
				
					<radialGradient id="SVGID_40_" cx="-536.8551" cy="-354.5284" r="1.2784" gradientTransform="matrix(27.8171 0 0 -17.1753 15161.3662 -6083.8716)" gradientUnits="userSpaceOnUse">
					<stop  offset="0" style="stop-color:#939598"/>
					<stop  offset="0.45" style="stop-color:#939598"/>
					<stop  offset="1" style="stop-color:#FFFFFF"/>
				</radialGradient>
				<rect x="199.18" y="16.52" class="st17" width="8.39" height="10.03"/>
			</g>
		</g>
	</mask>
	<g class="st18">
		<g>
			<defs>
				<rect id="SVGID_41_" x="199.18" y="16.52" width="8.39" height="10.03"/>
			</defs>
			<clipPath id="SVGID_42_">
				<use xlink:href="#SVGID_41_"  style="overflow:visible;"/>
			</clipPath>
			<g class="st19">
				<defs>
					<rect id="SVGID_43_" x="199.18" y="16.52" width="8.39" height="10.03"/>
				</defs>
				<clipPath id="SVGID_44_">
					<use xlink:href="#SVGID_43_"  style="overflow:visible;"/>
				</clipPath>
				
					<radialGradient id="SVGID_45_" cx="-536.8551" cy="-354.5284" r="1.2784" gradientTransform="matrix(27.8171 0 0 -17.1753 15161.3662 -6083.8716)" gradientUnits="userSpaceOnUse">
					<stop  offset="0" style="stop-color:#51338B"/>
					<stop  offset="0.45" style="stop-color:#51338B"/>
					<stop  offset="1" style="stop-color:#51338B"/>
				</radialGradient>
				<rect x="199.18" y="16.52" class="st20" width="8.39" height="10.03"/>
			</g>
		</g>
	</g>
</g>
<g>
	<defs>
		<path id="SVGID_46_" d="M186.33,16.5v6.78h-0.03c-0.06-0.24-0.39-0.82-0.93-1.6l-3.55-5.18h-2.03v10.03h2.06v-6.52h0.03
			c0.09,0.23,0.35,0.84,0.87,1.54l3.61,4.99h2.02V16.5H186.33z"/>
	</defs>
	<clipPath id="SVGID_47_">
		<use xlink:href="#SVGID_46_"  style="overflow:visible;"/>
	</clipPath>
	<defs>
		<filter id="Adobe_OpacityMaskFilter_1_" filterUnits="userSpaceOnUse" x="179.79" y="16.5" width="8.59" height="10.04">
			<feColorMatrix  type="matrix" values="1 0 0 0 0  0 1 0 0 0  0 0 1 0 0  0 0 0 1 0"/>
		</filter>
	</defs>
	<mask maskUnits="userSpaceOnUse" x="179.79" y="16.5" width="8.59" height="10.04" id="SVGID_48_">
		<g class="st21">
			<rect x="179.79" y="16.51" class="st22" width="8.59" height="10.03"/>
			<g class="st16">
				
					<radialGradient id="SVGID_49_" cx="-536.8551" cy="-354.5284" r="1.2784" gradientTransform="matrix(27.8171 0 0 -17.1753 15161.3662 -6083.8716)" gradientUnits="userSpaceOnUse">
					<stop  offset="0" style="stop-color:#939598"/>
					<stop  offset="0.45" style="stop-color:#939598"/>
					<stop  offset="1" style="stop-color:#FFFFFF"/>
				</radialGradient>
				<rect x="179.79" y="16.5" class="st23" width="8.59" height="10.03"/>
			</g>
		</g>
	</mask>
	<g class="st24">
		<g>
			<defs>
				<rect id="SVGID_50_" x="179.79" y="16.51" width="8.59" height="10.03"/>
			</defs>
			<clipPath id="SVGID_51_">
				<use xlink:href="#SVGID_50_"  style="overflow:visible;"/>
			</clipPath>
			<g class="st25">
				<defs>
					<rect id="SVGID_52_" x="179.79" y="16.5" width="8.59" height="10.03"/>
				</defs>
				<clipPath id="SVGID_53_">
					<use xlink:href="#SVGID_52_"  style="overflow:visible;"/>
				</clipPath>
				
					<radialGradient id="SVGID_54_" cx="-536.8551" cy="-354.5284" r="1.2784" gradientTransform="matrix(27.8171 0 0 -17.1753 15161.3662 -6083.8716)" gradientUnits="userSpaceOnUse">
					<stop  offset="0" style="stop-color:#51338B"/>
					<stop  offset="0.45" style="stop-color:#51338B"/>
					<stop  offset="1" style="stop-color:#51338B"/>
				</radialGradient>
				<rect x="179.79" y="16.5" class="st26" width="8.59" height="10.03"/>
			</g>
		</g>
	</g>
</g>
<g>
	<defs>
		<rect id="SVGID_55_" x="229.71" y="16.52" width="2.22" height="10.03"/>
	</defs>
	<clipPath id="SVGID_56_">
		<use xlink:href="#SVGID_55_"  style="overflow:visible;"/>
	</clipPath>
	<defs>
		<filter id="Adobe_OpacityMaskFilter_2_" filterUnits="userSpaceOnUse" x="229.71" y="16.52" width="2.22" height="10.03">
			<feColorMatrix  type="matrix" values="1 0 0 0 0  0 1 0 0 0  0 0 1 0 0  0 0 0 1 0"/>
		</filter>
	</defs>
	<mask maskUnits="userSpaceOnUse" x="229.71" y="16.52" width="2.22" height="10.03" id="SVGID_57_">
		<g class="st27">
			<rect x="229.71" y="16.52" class="st28" width="2.22" height="10.03"/>
			<g class="st16">
				
					<radialGradient id="SVGID_58_" cx="-536.8551" cy="-354.5284" r="1.2784" gradientTransform="matrix(27.8171 0 0 -17.1753 15161.3662 -6083.8716)" gradientUnits="userSpaceOnUse">
					<stop  offset="0" style="stop-color:#939598"/>
					<stop  offset="0.45" style="stop-color:#939598"/>
					<stop  offset="1" style="stop-color:#FFFFFF"/>
				</radialGradient>
				<rect x="229.71" y="16.52" class="st29" width="2.22" height="10.03"/>
			</g>
		</g>
	</mask>
	<g class="st30">
		<g>
			<defs>
				<rect id="SVGID_59_" x="229.71" y="16.52" width="2.22" height="10.03"/>
			</defs>
			<clipPath id="SVGID_60_">
				<use xlink:href="#SVGID_59_"  style="overflow:visible;"/>
			</clipPath>
			<g class="st31">
				<defs>
					<rect id="SVGID_61_" x="229.71" y="16.52" width="2.22" height="10.03"/>
				</defs>
				<clipPath id="SVGID_62_">
					<use xlink:href="#SVGID_61_"  style="overflow:visible;"/>
				</clipPath>
				
					<radialGradient id="SVGID_63_" cx="-536.8551" cy="-354.5284" r="1.2784" gradientTransform="matrix(27.8171 0 0 -17.1753 15161.3662 -6083.8716)" gradientUnits="userSpaceOnUse">
					<stop  offset="0" style="stop-color:#51338B"/>
					<stop  offset="0.45" style="stop-color:#51338B"/>
					<stop  offset="1" style="stop-color:#51338B"/>
				</radialGradient>
				<rect x="229.71" y="16.52" class="st32" width="2.22" height="10.03"/>
			</g>
		</g>
	</g>
</g>
<g>
	<defs>
		<path id="SVGID_64_" d="M237.59,18.19h0.03c0.67,1.32,1.18,2.77,1.58,4.26h-3.18C236.41,20.94,236.93,19.5,237.59,18.19
			 M236.38,16.5c-1.86,2.94-2.83,6.68-3.38,10.05h2.23c0.12-0.8,0.27-1.62,0.46-2.43h3.84c0.2,0.81,0.34,1.64,0.44,2.43h2.44
			c-0.58-3.44-1.52-6.98-3.4-10.05H236.38z"/>
	</defs>
	<clipPath id="SVGID_65_">
		<use xlink:href="#SVGID_64_"  style="overflow:visible;"/>
	</clipPath>
	<defs>
		<filter id="Adobe_OpacityMaskFilter_3_" filterUnits="userSpaceOnUse" x="232.99" y="16.5" width="9.41" height="10.05">
			<feColorMatrix  type="matrix" values="1 0 0 0 0  0 1 0 0 0  0 0 1 0 0  0 0 0 1 0"/>
		</filter>
	</defs>
	<mask maskUnits="userSpaceOnUse" x="232.99" y="16.5" width="9.41" height="10.05" id="SVGID_66_">
		<g class="st33">
			<rect x="232.99" y="16.5" class="st34" width="9.41" height="10.05"/>
			<g class="st16">
				
					<radialGradient id="SVGID_67_" cx="-536.8551" cy="-354.5284" r="1.2784" gradientTransform="matrix(27.8171 0 0 -17.1753 15161.3662 -6083.8716)" gradientUnits="userSpaceOnUse">
					<stop  offset="0" style="stop-color:#939598"/>
					<stop  offset="0.45" style="stop-color:#939598"/>
					<stop  offset="1" style="stop-color:#FFFFFF"/>
				</radialGradient>
				<rect x="232.99" y="16.5" class="st35" width="9.41" height="10.05"/>
			</g>
		</g>
	</mask>
	<g class="st36">
		<g>
			<defs>
				<rect id="SVGID_68_" x="232.99" y="16.5" width="9.41" height="10.05"/>
			</defs>
			<clipPath id="SVGID_69_">
				<use xlink:href="#SVGID_68_"  style="overflow:visible;"/>
			</clipPath>
			<g class="st37">
				<defs>
					<rect id="SVGID_70_" x="232.99" y="16.5" width="9.41" height="10.05"/>
				</defs>
				<clipPath id="SVGID_71_">
					<use xlink:href="#SVGID_70_"  style="overflow:visible;"/>
				</clipPath>
				
					<radialGradient id="SVGID_72_" cx="-536.8551" cy="-354.5284" r="1.2784" gradientTransform="matrix(27.8171 0 0 -17.1753 15161.3662 -6083.8716)" gradientUnits="userSpaceOnUse">
					<stop  offset="0" style="stop-color:#51338B"/>
					<stop  offset="0.45" style="stop-color:#51338B"/>
					<stop  offset="1" style="stop-color:#51338B"/>
				</radialGradient>
				<rect x="232.99" y="16.5" class="st38" width="9.41" height="10.05"/>
			</g>
		</g>
	</g>
</g>
<g>
	<defs>
		<path id="SVGID_73_" d="M220.79,21.65c0,2.96,1.92,5.15,4.98,5.15c0.98,0,2.16-0.33,2.88-0.7l-0.6-1.72c-0.5,0.3-1.21,0.54-2,0.54
			c-1.58,0-2.96-1.24-2.96-3.33c0-1.59,0.71-3.47,2.8-3.47c0.64,0,1.36,0.18,2.02,0.54l0.72-1.83c-0.72-0.33-1.63-0.58-2.87-0.58
			C222.4,16.25,220.79,18.85,220.79,21.65"/>
	</defs>
	<clipPath id="SVGID_74_">
		<use xlink:href="#SVGID_73_"  style="overflow:visible;"/>
	</clipPath>
	<defs>
		<filter id="Adobe_OpacityMaskFilter_4_" filterUnits="userSpaceOnUse" x="220.79" y="16.25" width="7.86" height="10.55">
			<feColorMatrix  type="matrix" values="1 0 0 0 0  0 1 0 0 0  0 0 1 0 0  0 0 0 1 0"/>
		</filter>
	</defs>
	<mask maskUnits="userSpaceOnUse" x="220.79" y="16.25" width="7.86" height="10.55" id="SVGID_75_">
		<g class="st39">
			<rect x="220.79" y="16.25" class="st40" width="7.86" height="10.55"/>
			<g class="st16">
				
					<radialGradient id="SVGID_76_" cx="-536.8551" cy="-354.5284" r="1.2784" gradientTransform="matrix(27.8171 0 0 -17.1753 15161.3662 -6083.8716)" gradientUnits="userSpaceOnUse">
					<stop  offset="0" style="stop-color:#939598"/>
					<stop  offset="0.45" style="stop-color:#939598"/>
					<stop  offset="1" style="stop-color:#FFFFFF"/>
				</radialGradient>
				<rect x="220.79" y="16.25" class="st41" width="7.86" height="10.55"/>
			</g>
		</g>
	</mask>
	<g class="st42">
		<g>
			<defs>
				<rect id="SVGID_77_" x="220.79" y="16.25" width="7.86" height="10.55"/>
			</defs>
			<clipPath id="SVGID_78_">
				<use xlink:href="#SVGID_77_"  style="overflow:visible;"/>
			</clipPath>
			<g class="st43">
				<defs>
					<rect id="SVGID_79_" x="220.79" y="16.25" width="7.86" height="10.55"/>
				</defs>
				<clipPath id="SVGID_80_">
					<use xlink:href="#SVGID_79_"  style="overflow:visible;"/>
				</clipPath>
				
					<radialGradient id="SVGID_81_" cx="-536.8551" cy="-354.5284" r="1.2784" gradientTransform="matrix(27.8171 0 0 -17.1753 15161.3662 -6083.8716)" gradientUnits="userSpaceOnUse">
					<stop  offset="0" style="stop-color:#51338B"/>
					<stop  offset="0.45" style="stop-color:#51338B"/>
					<stop  offset="1" style="stop-color:#51338B"/>
				</radialGradient>
				<rect x="220.79" y="16.25" class="st44" width="7.86" height="10.55"/>
			</g>
		</g>
	</g>
</g>
<g>
	<defs>
		<path id="SVGID_82_" d="M196.16,16.52v8.44c-0.41,0.1-0.83,0.16-1.25,0.16c-1.56,0-3.01-0.57-3.01-2.35v-6.26h-2.22v6.06
			c0,3.21,2.07,4.24,5.13,4.24c1.18,0,2.36-0.13,3.51-0.34v-9.95H196.16z"/>
	</defs>
	<clipPath id="SVGID_83_">
		<use xlink:href="#SVGID_82_"  style="overflow:visible;"/>
	</clipPath>
	<defs>
		<filter id="Adobe_OpacityMaskFilter_5_" filterUnits="userSpaceOnUse" x="189.68" y="16.52" width="8.64" height="10.29">
			<feColorMatrix  type="matrix" values="1 0 0 0 0  0 1 0 0 0  0 0 1 0 0  0 0 0 1 0"/>
		</filter>
	</defs>
	<mask maskUnits="userSpaceOnUse" x="189.68" y="16.52" width="8.64" height="10.29" id="SVGID_84_">
		<g class="st45">
			<rect x="189.68" y="16.52" class="st46" width="8.64" height="10.29"/>
			<g class="st16">
				
					<radialGradient id="SVGID_85_" cx="-536.8551" cy="-354.5284" r="1.2784" gradientTransform="matrix(27.8171 0 0 -17.1753 15161.3652 -6083.8716)" gradientUnits="userSpaceOnUse">
					<stop  offset="0" style="stop-color:#939598"/>
					<stop  offset="0.45" style="stop-color:#939598"/>
					<stop  offset="1" style="stop-color:#FFFFFF"/>
				</radialGradient>
				<rect x="189.68" y="16.52" class="st47" width="8.64" height="10.29"/>
			</g>
		</g>
	</mask>
	<g class="st48">
		<g>
			<defs>
				<rect id="SVGID_86_" x="189.68" y="16.52" width="8.64" height="10.29"/>
			</defs>
			<clipPath id="SVGID_87_">
				<use xlink:href="#SVGID_86_"  style="overflow:visible;"/>
			</clipPath>
			<g class="st49">
				<defs>
					<rect id="SVGID_88_" x="189.68" y="16.52" width="8.64" height="10.29"/>
				</defs>
				<clipPath id="SVGID_89_">
					<use xlink:href="#SVGID_88_"  style="overflow:visible;"/>
				</clipPath>
				
					<radialGradient id="SVGID_90_" cx="-536.8551" cy="-354.5284" r="1.2784" gradientTransform="matrix(27.8171 0 0 -17.1753 15161.3662 -6083.8716)" gradientUnits="userSpaceOnUse">
					<stop  offset="0" style="stop-color:#51338B"/>
					<stop  offset="0.45" style="stop-color:#51338B"/>
					<stop  offset="1" style="stop-color:#51338B"/>
				</radialGradient>
				<rect x="189.68" y="16.52" class="st50" width="8.64" height="10.29"/>
			</g>
		</g>
	</g>
</g>
<g>
	<defs>
		<rect id="SVGID_91_" x="217.43" y="16.52" width="2.22" height="10.03"/>
	</defs>
	<clipPath id="SVGID_92_">
		<use xlink:href="#SVGID_91_"  style="overflow:visible;"/>
	</clipPath>
	<defs>
		<filter id="Adobe_OpacityMaskFilter_6_" filterUnits="userSpaceOnUse" x="217.43" y="16.52" width="2.22" height="10.03">
			<feColorMatrix  type="matrix" values="1 0 0 0 0  0 1 0 0 0  0 0 1 0 0  0 0 0 1 0"/>
		</filter>
	</defs>
	<mask maskUnits="userSpaceOnUse" x="217.43" y="16.52" width="2.22" height="10.03" id="SVGID_93_">
		<g class="st51">
			<rect x="217.43" y="16.52" class="st52" width="2.22" height="10.03"/>
			<g class="st16">
				
					<radialGradient id="SVGID_94_" cx="-536.8551" cy="-354.5284" r="1.2784" gradientTransform="matrix(27.8171 0 0 -17.1753 15161.3652 -6083.8716)" gradientUnits="userSpaceOnUse">
					<stop  offset="0" style="stop-color:#939598"/>
					<stop  offset="0.45" style="stop-color:#939598"/>
					<stop  offset="1" style="stop-color:#FFFFFF"/>
				</radialGradient>
				<rect x="217.43" y="16.52" class="st53" width="2.22" height="10.03"/>
			</g>
		</g>
	</mask>
	<g class="st54">
		<g>
			<defs>
				<rect id="SVGID_95_" x="217.43" y="16.52" width="2.22" height="10.03"/>
			</defs>
			<clipPath id="SVGID_96_">
				<use xlink:href="#SVGID_95_"  style="overflow:visible;"/>
			</clipPath>
			<g class="st55">
				<defs>
					<rect id="SVGID_97_" x="217.43" y="16.52" width="2.22" height="10.03"/>
				</defs>
				<clipPath id="SVGID_98_">
					<use xlink:href="#SVGID_97_"  style="overflow:visible;"/>
				</clipPath>
				
					<radialGradient id="SVGID_99_" cx="-536.8551" cy="-354.5284" r="1.2784" gradientTransform="matrix(27.8171 0 0 -17.1753 15161.3662 -6083.8716)" gradientUnits="userSpaceOnUse">
					<stop  offset="0" style="stop-color:#51338B"/>
					<stop  offset="0.45" style="stop-color:#51338B"/>
					<stop  offset="1" style="stop-color:#51338B"/>
				</radialGradient>
				<rect x="217.43" y="16.52" class="st56" width="2.22" height="10.03"/>
			</g>
		</g>
	</g>
</g>
<g>
	<defs>
		<path id="SVGID_100_" d="M210.64,18.24h1.08c0.88,0,1.98,0.14,1.98,1.29c0,1.11-0.99,1.36-1.85,1.36h-1.21V18.24z M208.42,16.49
			v10.04h2.22v-4.01h0.7c0.23,0,0.44,0.04,0.67,0.5l1.85,3.54h2.66l-2.71-4.59c1.31-0.27,2.2-1.22,2.2-2.6
			c0-2.53-2.33-2.87-4.32-2.87H208.42z"/>
	</defs>
	<clipPath id="SVGID_101_">
		<use xlink:href="#SVGID_100_"  style="overflow:visible;"/>
	</clipPath>
	<defs>
		<filter id="Adobe_OpacityMaskFilter_7_" filterUnits="userSpaceOnUse" x="208.42" y="16.49" width="8.09" height="10.07">
			<feColorMatrix  type="matrix" values="1 0 0 0 0  0 1 0 0 0  0 0 1 0 0  0 0 0 1 0"/>
		</filter>
	</defs>
	<mask maskUnits="userSpaceOnUse" x="208.42" y="16.49" width="8.09" height="10.07" id="SVGID_102_">
		<g class="st57">
			<rect x="208.42" y="16.49" class="st58" width="8.09" height="10.07"/>
			<g class="st16">
				
					<radialGradient id="SVGID_103_" cx="-536.8551" cy="-354.5284" r="1.2784" gradientTransform="matrix(27.8171 0 0 -17.1753 15161.3662 -6083.8716)" gradientUnits="userSpaceOnUse">
					<stop  offset="0" style="stop-color:#939598"/>
					<stop  offset="0.45" style="stop-color:#939598"/>
					<stop  offset="1" style="stop-color:#FFFFFF"/>
				</radialGradient>
				<rect x="208.42" y="16.49" class="st59" width="8.09" height="10.07"/>
			</g>
		</g>
	</mask>
	<g class="st60">
		<g>
			<defs>
				<rect id="SVGID_104_" x="208.42" y="16.49" width="8.09" height="10.07"/>
			</defs>
			<clipPath id="SVGID_105_">
				<use xlink:href="#SVGID_104_"  style="overflow:visible;"/>
			</clipPath>
			<g class="st61">
				<defs>
					<rect id="SVGID_106_" x="208.42" y="16.49" width="8.09" height="10.07"/>
				</defs>
				<clipPath id="SVGID_107_">
					<use xlink:href="#SVGID_106_"  style="overflow:visible;"/>
				</clipPath>
				
					<radialGradient id="SVGID_108_" cx="-536.8551" cy="-354.5284" r="1.2784" gradientTransform="matrix(27.8171 0 0 -17.1753 15161.3662 -6083.8716)" gradientUnits="userSpaceOnUse">
					<stop  offset="0" style="stop-color:#51338B"/>
					<stop  offset="0.45" style="stop-color:#51338B"/>
					<stop  offset="1" style="stop-color:#51338B"/>
				</radialGradient>
				<rect x="208.42" y="16.49" class="st62" width="8.09" height="10.07"/>
			</g>
		</g>
	</g>
</g>
<g>
	<defs>
		<path id="SVGID_109_" d="M189.12,4c-8.8,0-15.94,7.26-15.94,16.22c0,2.24,0.45,4.37,1.25,6.32h2.86
			c-1.13-2.03-1.78-4.35-1.78-6.82c0-7.92,6.61-14.35,14.77-14.35c6.11,0,11.34,3.6,13.6,8.72C201.51,8.17,195.79,4,189.12,4z"/>
	</defs>
	<clipPath id="SVGID_110_">
		<use xlink:href="#SVGID_109_"  style="overflow:visible;"/>
	</clipPath>
	<defs>
		<filter id="Adobe_OpacityMaskFilter_8_" filterUnits="userSpaceOnUse" x="173.18" y="4" width="30.71" height="22.54">
			<feColorMatrix  type="matrix" values="1 0 0 0 0  0 1 0 0 0  0 0 1 0 0  0 0 0 1 0"/>
		</filter>
	</defs>
	<mask maskUnits="userSpaceOnUse" x="173.18" y="4" width="30.71" height="22.54" id="SVGID_111_">
		<g class="st63">
			<rect x="173.18" y="4" class="st64" width="30.71" height="22.54"/>
			<g class="st16">
				
					<linearGradient id="SVGID_112_" gradientUnits="userSpaceOnUse" x1="-533.8453" y1="-314.0835" x2="-532.5668" y2="-314.0835" gradientTransform="matrix(24.0173 0 0 24.0173 12994.6982 7558.7056)">
					<stop  offset="0" style="stop-color:#FFFFFF"/>
					<stop  offset="0.475" style="stop-color:#D1D3D4"/>
					<stop  offset="0.6883" style="stop-color:#848485"/>
					<stop  offset="0.8664" style="stop-color:#4A4849"/>
					<stop  offset="0.9511" style="stop-color:#333132"/>
					<stop  offset="1" style="stop-color:#333132"/>
				</linearGradient>
				<rect x="173.18" y="4" class="st65" width="30.71" height="22.54"/>
			</g>
		</g>
	</mask>
	<g class="st66">
		<g>
			<defs>
				<rect id="SVGID_113_" x="173.18" y="4" width="30.71" height="22.54"/>
			</defs>
			<clipPath id="SVGID_114_">
				<use xlink:href="#SVGID_113_"  style="overflow:visible;"/>
			</clipPath>
			<g class="st67">
				<defs>
					<rect id="SVGID_115_" x="173.18" y="4" width="30.71" height="22.54"/>
				</defs>
				<clipPath id="SVGID_116_">
					<use xlink:href="#SVGID_115_"  style="overflow:visible;"/>
				</clipPath>
				
					<linearGradient id="SVGID_117_" gradientUnits="userSpaceOnUse" x1="-533.8453" y1="-314.0835" x2="-532.5668" y2="-314.0835" gradientTransform="matrix(24.0173 0 0 24.0173 12994.6982 7558.7056)">
					<stop  offset="0" style="stop-color:#2B3C90"/>
					<stop  offset="0.475" style="stop-color:#51338B"/>
					<stop  offset="0.9511" style="stop-color:#5A3294"/>
					<stop  offset="1" style="stop-color:#5A3294"/>
				</linearGradient>
				<rect x="173.18" y="4" class="st68" width="30.71" height="22.54"/>
			</g>
		</g>
	</g>
</g>
</svg>
