<svg id="Logo_NB_Gris" data-name="Logo NB Gris" xmlns="http://www.w3.org/2000/svg" width="343.088" height="84.817" viewBox="0 0 343.088 84.817">
  <g id="Group_7" data-name="Group 7" transform="translate(3.786 35.814)">
    <path id="Path_240" data-name="Path 240" d="M100.669,70.349V46.286h9.014V41.007H85.161v5.279h9.019V70.349Z" transform="translate(-12.927 -40.216)" fill="#8c8c8c"/>
    <path id="Path_241" data-name="Path 241" d="M27.763,51.231A20.361,20.361,0,0,0,30.3,55.721L40.856,70.308h5.9V40.965H40.773V60.79h-.082a20.722,20.722,0,0,0-2.7-4.7L27.6,40.965H21.651V70.308h6.027V51.231Z" transform="translate(-6.11 -40.212)" fill="#8c8c8c"/>
    <rect id="Rectangle_28" data-name="Rectangle 28" width="6.486" height="29.341" transform="translate(161.511 0.787)" fill="#8c8c8c"/>
    <path id="Path_242" data-name="Path 242" d="M205.829,40.959c-5.44,8.6-8.27,19.533-9.888,29.382h6.522c.337-2.326.789-4.734,1.33-7.109h11.226a63.531,63.531,0,0,1,1.289,7.109h7.149c-1.706-10.055-4.449-20.406-9.934-29.382Zm-1.08,17.413A64.586,64.586,0,0,1,209.364,45.9h.086a64.747,64.747,0,0,1,4.609,12.472Z" transform="translate(-24.819 -40.211)" fill="#8c8c8c"/>
    <path id="Path_243" data-name="Path 243" d="M170.883,45.607a12.7,12.7,0,0,1,5.9,1.576l2.12-5.362a19.848,19.848,0,0,0-8.394-1.7c-9.853,0-14.552,7.6-14.552,15.793,0,8.644,5.614,15.047,14.552,15.047a20.712,20.712,0,0,0,8.437-2.033L177.2,63.894a11.645,11.645,0,0,1-5.858,1.579c-4.617,0-8.647-3.618-8.647-9.727C162.7,51.093,164.774,45.607,170.883,45.607Z" transform="translate(-20.527 -40.121)" fill="#8c8c8c"/>
    <path id="Path_244" data-name="Path 244" d="M54.04,41V58.711C54.04,68.1,60.106,71.1,69.047,71.1a56.849,56.849,0,0,0,10.266-1V41H73V65.691a15.6,15.6,0,0,1-3.659.46c-4.574,0-8.813-1.665-8.813-6.859V41Z" transform="translate(-9.587 -40.216)" fill="#8c8c8c"/>
    <rect id="Rectangle_29" data-name="Rectangle 29" width="6.483" height="29.341" transform="translate(125.596 0.787)" fill="#8c8c8c"/>
    <path id="Path_245" data-name="Path 245" d="M137.6,49.31c0-7.4-6.822-8.4-12.641-8.4h-9.518V70.255h6.483V58.531h2.039c.664,0,1.288.124,1.953,1.456l5.407,10.361h7.763l-7.933-13.433C134.982,56.123,137.6,53.337,137.6,49.31Zm-12.139,4.484h-3.536V46.023h3.159c2.577,0,5.779.418,5.779,3.783C130.866,53.044,127.956,53.794,125.464,53.794Z" transform="translate(-16.178 -40.206)" fill="#8c8c8c"/>
    <path id="Path_246" data-name="Path 246" d="M9.241,92.654a.468.468,0,1,1,0,.936h-4.5a.492.492,0,0,1-.5-.5V84.131a.5.5,0,1,1,.994,0v8.523Z" transform="translate(-4.241 -44.792)" fill="#8c8c8c"/>
    <path id="Path_247" data-name="Path 247" d="M13.146,93.21a.5.5,0,0,1-.994,0V84.131a.5.5,0,1,1,.994,0Z" transform="translate(-5.09 -44.792)" fill="#8c8c8c"/>
    <path id="Path_248" data-name="Path 248" d="M16.88,93.224a.5.5,0,0,1-.994,0V84.262a.493.493,0,0,1,.5-.5h4.693a.453.453,0,1,1,0,.906h-4.2v3.641H20.1a.453.453,0,1,1,0,.906H16.88Z" transform="translate(-5.491 -44.806)" fill="#8c8c8c"/>
    <path id="Path_249" data-name="Path 249" d="M24.213,93.6a.492.492,0,0,1-.5-.5V84.262a.493.493,0,0,1,.5-.5h4.693a.453.453,0,1,1,0,.906h-4.2v3.523h3.217a.453.453,0,0,1,0,.907H24.71v3.6h4.357a.453.453,0,1,1,0,.906Z" transform="translate(-6.332 -44.806)" fill="#8c8c8c"/>
    <path id="Path_250" data-name="Path 250" d="M34.782,91.007H31.858a.395.395,0,1,1,0-.789h2.924a.395.395,0,1,1,0,.789Z" transform="translate(-7.163 -45.499)" fill="#8c8c8c"/>
    <path id="Path_251" data-name="Path 251" d="M35.42,84.7a.468.468,0,0,1,0-.936h6.214a.468.468,0,0,1,0,.936h-2.6v8.524a.5.5,0,0,1-.994,0V84.7Z" transform="translate(-7.538 -44.806)" fill="#8c8c8c"/>
    <path id="Path_252" data-name="Path 252" d="M45.348,93.224a.5.5,0,0,1-.994,0V84.262a.493.493,0,0,1,.5-.5H47.76a2.729,2.729,0,0,1,2.792,2.792,2.69,2.69,0,0,1-2.617,2.792l2.676,3.568a.484.484,0,0,1,.1.307.5.5,0,0,1-.921.262l-2.967-4.137H45.348Zm0-4.781H47.79a1.89,1.89,0,0,0-.044-3.772h-2.4Z" transform="translate(-8.547 -44.806)" fill="#8c8c8c"/>
    <path id="Path_253" data-name="Path 253" d="M54.476,90.681l-1.068,2.675a.509.509,0,0,1-.482.351.5.5,0,0,1-.5-.5.58.58,0,0,1,.044-.22l3.567-9.02a.483.483,0,0,1,.468-.337.516.516,0,0,1,.483.337l3.567,9.02a.712.712,0,0,1,.044.22.513.513,0,0,1-.994.161l-1.053-2.69Zm2.032-5.38-1.725,4.474h3.464Z" transform="translate(-9.414 -44.792)" fill="#8c8c8c"/>
    <path id="Path_254" data-name="Path 254" d="M70.191,84.116V93.21a.5.5,0,0,1-.906.292l-5.146-7.763v7.486a.482.482,0,0,1-.965,0V84.116a.486.486,0,0,1,.482-.482.5.5,0,0,1,.4.2l5.175,7.778v-7.5a.482.482,0,0,1,.965,0Z" transform="translate(-10.567 -44.792)" fill="#8c8c8c"/>
    <path id="Path_255" data-name="Path 255" d="M76.354,84.442c-1.535,0-2.12.761-2.12,1.593,0,2.427,5.526,1.389,5.526,4.912,0,1.828-1.257,2.837-3.509,2.837a3.786,3.786,0,0,1-3.406-1.8.518.518,0,0,1-.073-.263.463.463,0,0,1,.468-.468.468.468,0,0,1,.41.234,2.923,2.923,0,0,0,2.6,1.389c1.609,0,2.515-.643,2.515-1.93,0-2.733-5.526-1.447-5.526-4.912,0-1.345.98-2.5,3.114-2.5a3.652,3.652,0,0,1,3.129,1.506.483.483,0,0,1,.087.278.47.47,0,0,1-.848.278A2.891,2.891,0,0,0,76.354,84.442Z" transform="translate(-11.598 -44.781)" fill="#8c8c8c"/>
    <path id="Path_256" data-name="Path 256" d="M83.627,93.224a.5.5,0,0,1-.994,0V84.262a.493.493,0,0,1,.5-.5h4.693a.453.453,0,1,1,0,.906h-4.2v3.641h3.217a.453.453,0,0,1,0,.906H83.627Z" transform="translate(-12.656 -44.806)" fill="#8c8c8c"/>
    <path id="Path_257" data-name="Path 257" d="M90.364,88.667c0-3.464,1.725-5.131,4.561-5.131s4.561,1.667,4.561,5.131c0,3.436-1.725,5.118-4.561,5.118S90.364,92.1,90.364,88.667Zm1.023,0c0,2.851,1.3,4.211,3.538,4.211s3.538-1.36,3.538-4.211-1.3-4.225-3.538-4.225S91.387,85.8,91.387,88.667Z" transform="translate(-13.486 -44.781)" fill="#8c8c8c"/>
    <path id="Path_258" data-name="Path 258" d="M103.61,93.224a.5.5,0,0,1-.994,0V84.262a.493.493,0,0,1,.5-.5h2.909a2.729,2.729,0,0,1,2.792,2.792,2.69,2.69,0,0,1-2.617,2.792l2.675,3.568a.484.484,0,0,1,.1.307.5.5,0,0,1-.92.262l-2.968-4.137H103.61Zm0-4.781h2.442a1.89,1.89,0,0,0-.044-3.772h-2.4Z" transform="translate(-14.801 -44.806)" fill="#8c8c8c"/>
    <path id="Path_259" data-name="Path 259" d="M115.416,91.719l-3.056-5.687v7.193a.482.482,0,0,1-.965,0V84.116a.487.487,0,0,1,.482-.482.482.482,0,0,1,.439.278l3.538,6.623,3.553-6.623a.484.484,0,0,1,.921.2v9.109a.482.482,0,0,1-.965,0V86.032l-3.07,5.687a.485.485,0,0,1-.877,0Z" transform="translate(-15.744 -44.792)" fill="#8c8c8c"/>
    <path id="Path_260" data-name="Path 260" d="M125.018,93.21a.5.5,0,0,1-.994,0V84.131a.5.5,0,1,1,.994,0Z" transform="translate(-17.099 -44.792)" fill="#8c8c8c"/>
    <path id="Path_261" data-name="Path 261" d="M134.612,84.116V93.21a.5.5,0,0,1-.907.292l-5.146-7.763v7.486a.482.482,0,0,1-.965,0V84.116a.487.487,0,0,1,.483-.482.5.5,0,0,1,.395.2l5.176,7.778v-7.5a.482.482,0,0,1,.965,0Z" transform="translate(-17.482 -44.792)" fill="#8c8c8c"/>
    <path id="Path_262" data-name="Path 262" d="M144.6,91.708v-2.12h-2.441a.453.453,0,1,1,0-.906h2.953a.465.465,0,0,1,.453.453v2.559a.725.725,0,0,1-.19.482,4.312,4.312,0,0,1-3.494,1.609c-2.837,0-4.561-1.521-4.561-5.118,0-3.464,1.725-5.131,4.561-5.131a4.012,4.012,0,0,1,3.289,1.55.513.513,0,0,1,.1.307.471.471,0,0,1-.849.278,3.153,3.153,0,0,0-2.543-1.228c-2.252,0-3.539,1.36-3.539,4.225,0,3.041,1.286,4.211,3.539,4.211A3.36,3.36,0,0,0,144.6,91.708Z" transform="translate(-18.527 -44.781)" fill="#8c8c8c"/>
    <path id="Path_263" data-name="Path 263" d="M159.852,84.116V93.21a.5.5,0,0,1-.906.292L153.8,85.739v7.486a.482.482,0,0,1-.965,0V84.116a.487.487,0,0,1,.483-.482.5.5,0,0,1,.395.2l5.176,7.778v-7.5a.482.482,0,1,1,.964,0Z" transform="translate(-20.192 -44.792)" fill="#8c8c8c"/>
    <path id="Path_264" data-name="Path 264" d="M163.154,90.593V84.131a.5.5,0,1,1,.994,0v6.462c0,1.155.424,2.266,2.441,2.266s2.427-1.111,2.427-2.266V84.131a.5.5,0,1,1,.994,0v6.462c0,1.609-.658,3.2-3.422,3.2S163.154,92.2,163.154,90.593Z" transform="translate(-21.3 -44.792)" fill="#8c8c8c"/>
    <path id="Path_265" data-name="Path 265" d="M172.926,84.7a.468.468,0,1,1,0-.936h6.214a.468.468,0,0,1,0,.936h-2.6v8.524a.5.5,0,0,1-.993,0V84.7Z" transform="translate(-22.298 -44.806)" fill="#8c8c8c"/>
    <path id="Path_266" data-name="Path 266" d="M183.181,93.224a.5.5,0,0,1-.994,0V84.262a.493.493,0,0,1,.5-.5h2.909a2.73,2.73,0,0,1,2.793,2.792,2.69,2.69,0,0,1-2.617,2.792l2.675,3.568a.484.484,0,0,1,.1.307.5.5,0,0,1-.921.262l-2.968-4.137h-1.476Zm0-4.781h2.441a1.89,1.89,0,0,0-.044-3.772h-2.4Z" transform="translate(-23.343 -44.806)" fill="#8c8c8c"/>
    <path id="Path_267" data-name="Path 267" d="M192.124,93.21a.5.5,0,0,1-.994,0V84.131a.5.5,0,1,1,.994,0Z" transform="translate(-24.303 -44.792)" fill="#8c8c8c"/>
    <path id="Path_268" data-name="Path 268" d="M194.416,84.7a.468.468,0,0,1,0-.936h6.213a.468.468,0,1,1,0,.936h-2.6v8.524a.5.5,0,0,1-.994,0V84.7Z" transform="translate(-24.605 -44.806)" fill="#8c8c8c"/>
    <path id="Path_269" data-name="Path 269" d="M204.671,93.21a.5.5,0,0,1-.994,0V84.131a.5.5,0,1,1,.994,0Z" transform="translate(-25.65 -44.792)" fill="#8c8c8c"/>
    <path id="Path_270" data-name="Path 270" d="M206.822,88.667c0-3.464,1.726-5.131,4.561-5.131s4.561,1.667,4.561,5.131c0,3.436-1.726,5.118-4.561,5.118S206.822,92.1,206.822,88.667Zm1.023,0c0,2.851,1.3,4.211,3.538,4.211s3.538-1.36,3.538-4.211-1.3-4.225-3.538-4.225S207.845,85.8,207.845,88.667Z" transform="translate(-25.987 -44.781)" fill="#8c8c8c"/>
    <path id="Path_271" data-name="Path 271" d="M225.928,84.116V93.21a.5.5,0,0,1-.907.292l-5.146-7.763v7.486a.482.482,0,0,1-.965,0V84.116a.487.487,0,0,1,.483-.482.5.5,0,0,1,.395.2l5.176,7.778v-7.5a.482.482,0,0,1,.965,0Z" transform="translate(-27.285 -44.792)" fill="#8c8c8c"/>
  </g>
  <g id="Group_8" data-name="Group 8" transform="translate(240.002 36.288)">
    <path id="Path_272" data-name="Path 272" d="M268.863,70.367V40.959h14.046c6.618,0,11.891,1.555,11.891,7.384a7.75,7.75,0,0,1-3.835,6.415c3.173.813,4.878,3.551,4.878,6.746,0,6.566-5.027,8.862-12.653,8.862Zm9.626-12.3V63.5h4.2c2.375,0,4.172-.5,4.172-2.7,0-2.563-2.236-2.738-5.31-2.738Zm0-10.235v4.906h4c1.921,0,3.307-.871,3.307-2.58,0-2.306-1.876-2.326-3.911-2.326Z" transform="translate(-268.863 -40.685)" fill="#8c8c8c"/>
    <path id="Path_273" data-name="Path 273" d="M316.551,71.255l-.405-2.3a10.727,10.727,0,0,1-8.046,2.91c-4.046,0-7.648-2-7.648-6.465,0-9.713,15.22-5.3,15.22-9.305,0-1.558-1.859-1.757-2.757-1.757-1.187,0-2.776.24-2.985,2.086h-8.166c0-4.536,3.232-7.2,11.679-7.2,10.122,0,10.74,3.76,10.74,8.861V68.1a2.808,2.808,0,0,0,1.139,2.752v.4Zm-.879-9.48c-2.757,1.348-6.44.7-6.44,3.479,0,1.051,1.027,1.784,2.7,1.784C314.9,67.038,315.885,64.711,315.672,61.775Z" transform="translate(-272.254 -41.573)" fill="#8c8c8c"/>
    <path id="Path_274" data-name="Path 274" d="M338.849,72.342a1.346,1.346,0,0,0,.525.94,2.763,2.763,0,0,0,1.85.539c2.446,0,3.431-1.1,3.431-4.155V67.9a8.229,8.229,0,0,1-6.138,2.319c-5.915,0-9.3-4.649-9.3-10.121,0-5.267,2.529-10.869,9.542-10.869a8.085,8.085,0,0,1,6.495,3.445V49.855h7.483V67.086c0,6.408-.745,11.425-11.274,11.425-7.552,0-10.746-3.02-11.151-6.169Zm-1.143-12.16c0,2.125,1.053,4.131,3.348,4.165,2.615.128,3.6-2.127,3.6-4.419,0-2.354-.905-4.6-3.6-4.6C338.492,55.289,337.706,57.407,337.706,60.182Z" transform="translate(-275.342 -41.573)" fill="#8c8c8c"/>
    <path id="Path_275" data-name="Path 275" d="M369.217,49.231c7.575,0,12.2,4.453,12.2,11.123,0,7.832-5.3,11.514-12.162,11.514S357.091,68.1,357.091,60.807C357.091,53.368,362,49.231,369.217,49.231Zm-3.634,11.123c0,4.034,1.513,5.784,3.675,5.784,2.295,0,3.678-1.75,3.678-5.784,0-3.154-1.383-5.521-3.588-5.394C366.448,54.96,365.583,57.932,365.583,60.354Z" transform="translate(-278.334 -41.573)" fill="#8c8c8c"/>
    <path id="Path_276" data-name="Path 276" d="M366.209,46.645h5.668l6.945-5.994h-8.3Z" transform="translate(-279.313 -40.652)" fill="#8c8c8c"/>
  </g>
  <circle id="Ellipse_9" data-name="Ellipse 9" cx="5.081" cy="5.081" r="5.081" transform="translate(214.071 46.567)" fill="#8c8c8c"/>
  <path id="Path_277" data-name="Path 277" d="M83.378,18.8A44.638,44.638,0,0,0,46.616,0C20.871,0,0,21.24,0,47.441a48.029,48.029,0,0,0,3.664,18.47h8.353A40.811,40.811,0,0,1,6.825,45.957c0-23.168,19.343-41.948,43.2-41.948A44.927,44.927,0,0,1,83.378,18.8" fill="#8c8c8c"/>
</svg>
