<?xml version="1.0" encoding="utf-8"?>
<!-- Generator: Adobe Illustrator 26.0.0, SVG Export Plug-In . SVG Version: 6.00 Build 0)  -->
<svg version="1.1" id="Layer_1" xmlns="http://www.w3.org/2000/svg" xmlns:xlink="http://www.w3.org/1999/xlink" x="0px" y="0px"
	 viewBox="0 0 627.3 131.6" style="enable-background:new 0 0 627.3 131.6;" xml:space="preserve">
<style type="text/css">
	.st0{fill:#2B3C90;}
	.st1{fill:url(#SVGID_1_);}
	.st2{fill:url(#SVGID_00000009566910725927149980000002142877347601903757_);}
	.st3{fill:url(#SVGID_00000181765803346032036730000000192876782832706484_);}
	.st4{fill:url(#SVGID_00000011738521294579669860000012024693415799514534_);}
	.st5{fill:url(#SVGID_00000151527212789665651480000005005235416512968379_);}
	.st6{fill:url(#SVGID_00000148657808339641903610000000566777209470822022_);}
	.st7{fill:url(#SVGID_00000135659182313446159900000011308936877567285391_);}
	.st8{fill:url(#SVGID_00000093160078544319071760000013893128133131383717_);}
	.st9{fill:url(#SVGID_00000126294230777412650430000018112791236398853297_);}
	.st10{fill:#51338B;}
</style>
<rect x="413.5" y="29.9" class="st0" width="0.3" height="95.1"/>
<g>
	
		<radialGradient id="SVGID_1_" cx="-1126.2529" cy="581.5754" r="0.1131" gradientTransform="matrix(1030.3743 0 0 -636.1901 1160654.625 370010.25)" gradientUnits="userSpaceOnUse">
		<stop  offset="0.45" style="stop-color:#51338B;stop-opacity:0.5"/>
		<stop  offset="1" style="stop-color:#51338B"/>
	</radialGradient>
	<polygon class="st1" points="116.7,87.5 116.7,60.5 126.7,60.5 126.7,54.6 99.3,54.6 99.3,60.5 109.4,60.5 109.4,87.5 	"/>
	
		<radialGradient id="SVGID_00000051381169266779759330000017027771128050707122_" cx="-1126.2529" cy="581.5754" r="0.1131" gradientTransform="matrix(1030.3743 0 0 -636.1901 1160654.625 370010.25)" gradientUnits="userSpaceOnUse">
		<stop  offset="0.45" style="stop-color:#51338B;stop-opacity:0.5"/>
		<stop  offset="1" style="stop-color:#51338B"/>
	</radialGradient>
	<path style="fill:url(#SVGID_00000051381169266779759330000017027771128050707122_);" d="M42.6,66.1c0.3,0.7,1.2,2.7,2.8,5
		l11.8,16.3h6.6V54.6h-6.7v22.2h-0.1c-0.2-0.8-1.3-2.7-3-5.3L42.4,54.6h-6.7v32.9h6.8L42.6,66.1L42.6,66.1z"/>
	
		<radialGradient id="SVGID_00000163074640911896658380000001791323453553417106_" cx="-1126.2529" cy="581.5754" r="0.1131" gradientTransform="matrix(1030.3743 0 0 -636.1901 1160654.625 370010.25)" gradientUnits="userSpaceOnUse">
		<stop  offset="0.45" style="stop-color:#51338B;stop-opacity:0.5"/>
		<stop  offset="1" style="stop-color:#51338B"/>
	</radialGradient>
	
		<rect x="199.3" y="54.6" style="fill:url(#SVGID_00000163074640911896658380000001791323453553417106_);" width="7.3" height="32.9"/>
	
		<radialGradient id="SVGID_00000091722037898479514470000017713501564897357495_" cx="-1126.2529" cy="581.5754" r="0.1131" gradientTransform="matrix(1030.3743 0 0 -636.1901 1160654.625 370010.25)" gradientUnits="userSpaceOnUse">
		<stop  offset="0.45" style="stop-color:#51338B;stop-opacity:0.5"/>
		<stop  offset="1" style="stop-color:#51338B"/>
	</radialGradient>
	<path style="fill:url(#SVGID_00000091722037898479514470000017713501564897357495_);" d="M221.1,54.5c-6.1,9.6-9.3,21.9-11.1,32.9
		h7.3c0.4-2.6,0.9-5.3,1.5-8h12.6c0.7,2.7,1.1,5.4,1.4,8h8c-1.9-11.3-5-22.9-11.1-32.9H221.1z M219.9,74.1c1.3-5,3-9.7,5.2-14h0.1
		c2.2,4.3,3.9,9.1,5.2,14H219.9z"/>
	
		<radialGradient id="SVGID_00000157986494078467574340000008701426010032694937_" cx="-1126.2529" cy="581.5754" r="0.1131" gradientTransform="matrix(1030.3743 0 0 -636.1901 1160654.625 370010.25)" gradientUnits="userSpaceOnUse">
		<stop  offset="0.45" style="stop-color:#51338B;stop-opacity:0.5"/>
		<stop  offset="1" style="stop-color:#51338B"/>
	</radialGradient>
	<path style="fill:url(#SVGID_00000157986494078467574340000008701426010032694937_);" d="M186.8,59.9c2.1,0,4.5,0.6,6.6,1.8l2.4-6
		c-2.4-1.1-5.4-1.9-9.4-1.9c-11,0-16.3,8.5-16.3,17.7c0,9.7,6.3,16.9,16.3,16.9c3.2,0,7.1-1.1,9.5-2.3l-2-5.6c-1.6,1-4,1.8-6.6,1.8
		c-5.2,0-9.7-4.1-9.7-10.9C177.6,66,180,59.9,186.8,59.9z"/>
	
		<radialGradient id="SVGID_00000075846044699198282300000008383491455668357779_" cx="-1126.2529" cy="581.5754" r="0.1131" gradientTransform="matrix(1030.3743 0 0 -636.1901 1160654.625 370010.25)" gradientUnits="userSpaceOnUse">
		<stop  offset="0.45" style="stop-color:#51338B;stop-opacity:0.5"/>
		<stop  offset="1" style="stop-color:#51338B"/>
	</radialGradient>
	<path style="fill:url(#SVGID_00000075846044699198282300000008383491455668357779_);" d="M68.2,54.6v19.8C68.2,85,75,88.3,85,88.3
		c3.9,0,7.7-0.4,11.5-1.1V54.6h-7.1v27.7c-1.4,0.3-2.7,0.5-4.1,0.5c-5.1,0-9.9-1.9-9.9-7.7V54.6H68.2z"/>
	
		<radialGradient id="SVGID_00000123428860589293060890000012449741797377294989_" cx="-1126.2529" cy="581.5754" r="0.1131" gradientTransform="matrix(1030.3743 0 0 -636.1901 1160654.625 370010.25)" gradientUnits="userSpaceOnUse">
		<stop  offset="0.45" style="stop-color:#51338B;stop-opacity:0.5"/>
		<stop  offset="1" style="stop-color:#51338B"/>
	</radialGradient>
	
		<rect x="159.1" y="54.6" style="fill:url(#SVGID_00000123428860589293060890000012449741797377294989_);" width="7.3" height="32.9"/>
	
		<radialGradient id="SVGID_00000160170887528997405760000013024620818501567642_" cx="-1126.2529" cy="581.5754" r="0.1131" gradientTransform="matrix(1030.3743 0 0 -636.1901 1160654.625 370010.25)" gradientUnits="userSpaceOnUse">
		<stop  offset="0.45" style="stop-color:#51338B;stop-opacity:0.5"/>
		<stop  offset="1" style="stop-color:#51338B"/>
	</radialGradient>
	<path style="fill:url(#SVGID_00000160170887528997405760000013024620818501567642_);" d="M154.4,63.9c0-8.3-7.6-9.4-14.2-9.4h-10.7
		v32.9h7.3V74.2h2.3c0.7,0,1.4,0.1,2.2,1.6l6.1,11.6h8.7l-8.9-15C151.4,71.5,154.4,68.4,154.4,63.9z M140.8,68.9h-4v-8.7h3.5
		c2.9,0,6.5,0.5,6.5,4.2C146.8,68.1,143.6,68.9,140.8,68.9z"/>
	<path class="st0" d="M24,107.3c0.3,0,0.5,0.2,0.5,0.5s-0.2,0.5-0.5,0.5h-5c-0.3,0-0.6-0.2-0.6-0.6v-10c0-0.3,0.2-0.6,0.6-0.6
		c0.3,0,0.6,0.2,0.6,0.6v9.5H24z"/>
	<path class="st0" d="M27.4,108c0,0.3-0.2,0.6-0.6,0.6c-0.3,0-0.6-0.3-0.6-0.6V97.8c0-0.3,0.2-0.6,0.6-0.6c0.3,0,0.6,0.3,0.6,0.6
		V108z"/>
	<path class="st0" d="M31.1,108c0,0.3-0.2,0.6-0.6,0.6c-0.3,0-0.6-0.2-0.6-0.6v-10c0-0.3,0.2-0.6,0.6-0.6h5.3c0.3,0,0.5,0.2,0.5,0.5
		c0,0.3-0.2,0.5-0.5,0.5h-4.7v4.1h3.6c0.3,0,0.5,0.2,0.5,0.5s-0.2,0.5-0.5,0.5h-3.6V108z"/>
	<path class="st0" d="M38.4,108.4c-0.3,0-0.6-0.2-0.6-0.6v-9.9c0-0.3,0.2-0.6,0.6-0.6h5.3c0.3,0,0.5,0.2,0.5,0.5
		c0,0.3-0.2,0.5-0.5,0.5h-4.7v3.9h3.6c0.3,0,0.5,0.2,0.5,0.5c0,0.3-0.2,0.5-0.5,0.5h-3.6v4h4.9c0.3,0,0.5,0.2,0.5,0.5
		c0,0.3-0.2,0.5-0.5,0.5H38.4z"/>
	<path class="st0" d="M49.3,104.7H46c-0.2,0-0.4-0.2-0.4-0.4c0-0.2,0.2-0.4,0.4-0.4h3.3c0.2,0,0.4,0.2,0.4,0.4
		C49.7,104.5,49.5,104.7,49.3,104.7z"/>
	<path class="st0" d="M49.6,98.4c-0.3,0-0.5-0.2-0.5-0.5c0-0.3,0.2-0.5,0.5-0.5h7c0.3,0,0.5,0.2,0.5,0.5c0,0.3-0.2,0.5-0.5,0.5h-2.9
		v9.5c0,0.3-0.2,0.6-0.6,0.6c-0.3,0-0.6-0.2-0.6-0.6v-9.5H49.6z"/>
	<path class="st0" d="M59.6,108c0,0.3-0.2,0.6-0.6,0.6c-0.3,0-0.6-0.2-0.6-0.6v-10c0-0.3,0.2-0.6,0.6-0.6h3.3c1.8,0,3.1,1.4,3.1,3.1
		c0,1.7-1.2,3-2.9,3.1l3,4c0.1,0.1,0.1,0.2,0.1,0.3c0,0.3-0.2,0.6-0.6,0.6c-0.2,0-0.3-0.1-0.5-0.3l-3.3-4.6h-1.7V108z M59.6,102.6
		h2.7c1.1,0,2-0.9,2-2.1c0-1.2-0.8-2.1-2-2.1h-2.7V102.6z"/>
	<path class="st0" d="M68.8,105.1l-1.2,3c-0.1,0.2-0.3,0.4-0.5,0.4c-0.3,0-0.6-0.3-0.6-0.6c0-0.1,0-0.2,0-0.2l4-10.1
		c0.1-0.2,0.2-0.4,0.5-0.4c0.3,0,0.5,0.2,0.5,0.4l4,10.1c0,0.1,0,0.2,0,0.2c0,0.3-0.2,0.6-0.6,0.6c-0.3,0-0.5-0.2-0.5-0.4l-1.2-3
		H68.8z M71.1,99.1l-1.9,5h3.9L71.1,99.1z"/>
	<path class="st0" d="M85.2,97.8V108c0,0.3-0.2,0.6-0.6,0.6c-0.2,0-0.3-0.1-0.5-0.2l-5.8-8.7v8.4c0,0.3-0.2,0.5-0.5,0.5
		c-0.3,0-0.5-0.2-0.5-0.5V97.8c0-0.3,0.2-0.5,0.5-0.5c0.2,0,0.4,0.1,0.4,0.2l5.8,8.7v-8.4c0-0.3,0.2-0.5,0.5-0.5
		S85.2,97.5,85.2,97.8z"/>
	<path class="st0" d="M90.9,98.1c-1.7,0-2.4,0.9-2.4,1.8c0,2.7,6.2,1.6,6.2,5.5c0,2-1.4,3.2-3.9,3.2c-1.9,0-3.3-1-3.8-2
		c-0.1-0.1-0.1-0.2-0.1-0.3c0-0.3,0.2-0.5,0.5-0.5c0.2,0,0.4,0.1,0.5,0.3c0.5,0.9,1.5,1.6,2.9,1.6c1.8,0,2.8-0.7,2.8-2.2
		c0-3.1-6.2-1.6-6.2-5.5c0-1.5,1.1-2.8,3.5-2.8c1.6,0,2.8,0.7,3.5,1.7c0.1,0.1,0.1,0.2,0.1,0.3c0,0.3-0.2,0.5-0.5,0.5
		c-0.1,0-0.3,0-0.4-0.2C93.1,98.8,92.3,98.1,90.9,98.1z"/>
	<path class="st0" d="M97.9,108c0,0.3-0.2,0.6-0.6,0.6c-0.3,0-0.6-0.2-0.6-0.6v-10c0-0.3,0.2-0.6,0.6-0.6h5.3c0.3,0,0.5,0.2,0.5,0.5
		c0,0.3-0.2,0.5-0.5,0.5h-4.7v4.1h3.6c0.3,0,0.5,0.2,0.5,0.5s-0.2,0.5-0.5,0.5h-3.6V108z"/>
	<path class="st0" d="M104.5,102.9c0-3.9,1.9-5.7,5.1-5.7c3.2,0,5.1,1.9,5.1,5.7c0,3.8-1.9,5.7-5.1,5.7
		C106.4,108.6,104.5,106.7,104.5,102.9z M105.6,102.9c0,3.2,1.5,4.7,4,4.7c2.5,0,4-1.5,4-4.7c0-3.2-1.5-4.7-4-4.7
		C107.1,98.1,105.6,99.7,105.6,102.9z"/>
	<path class="st0" d="M117.8,108c0,0.3-0.2,0.6-0.6,0.6c-0.3,0-0.6-0.2-0.6-0.6v-10c0-0.3,0.2-0.6,0.6-0.6h3.3
		c1.8,0,3.1,1.4,3.1,3.1c0,1.7-1.2,3-2.9,3.1l3,4c0.1,0.1,0.1,0.2,0.1,0.3c0,0.3-0.2,0.6-0.6,0.6c-0.2,0-0.3-0.1-0.5-0.3l-3.3-4.6
		h-1.7V108z M117.8,102.6h2.7c1.1,0,2-0.9,2-2.1c0-1.2-0.8-2.1-2-2.1h-2.7V102.6z"/>
	<path class="st0" d="M130,106.3l-3.4-6.4v8.1c0,0.3-0.2,0.5-0.5,0.5c-0.3,0-0.5-0.2-0.5-0.5V97.8c0-0.3,0.2-0.5,0.5-0.5
		c0.2,0,0.4,0.1,0.5,0.3l4,7.4l4-7.4c0.1-0.1,0.2-0.3,0.5-0.3c0.3,0,0.5,0.2,0.5,0.5V108c0,0.3-0.2,0.5-0.5,0.5
		c-0.3,0-0.5-0.2-0.5-0.5v-8.1l-3.4,6.4c-0.1,0.2-0.3,0.3-0.5,0.3C130.3,106.6,130.1,106.5,130,106.3z"/>
	<path class="st0" d="M139.3,108c0,0.3-0.2,0.6-0.6,0.6c-0.3,0-0.6-0.3-0.6-0.6V97.8c0-0.3,0.2-0.6,0.6-0.6c0.3,0,0.6,0.3,0.6,0.6
		V108z"/>
	<path class="st0" d="M149.6,97.8V108c0,0.3-0.2,0.6-0.6,0.6c-0.2,0-0.3-0.1-0.5-0.2l-5.8-8.7v8.4c0,0.3-0.2,0.5-0.5,0.5
		c-0.3,0-0.5-0.2-0.5-0.5V97.8c0-0.3,0.2-0.5,0.5-0.5c0.2,0,0.4,0.1,0.4,0.2l5.8,8.7v-8.4c0-0.3,0.2-0.5,0.5-0.5
		S149.6,97.5,149.6,97.8z"/>
	<path class="st0" d="M159.6,106.3v-2.4h-2.7c-0.3,0-0.5-0.2-0.5-0.5s0.2-0.5,0.5-0.5h3.3c0.3,0,0.5,0.2,0.5,0.5v2.9
		c0,0.2-0.1,0.4-0.2,0.5c-0.8,0.9-1.9,1.8-3.9,1.8c-3.2,0-5.1-1.7-5.1-5.7c0-3.9,1.9-5.7,5.1-5.7c1.6,0,2.9,0.7,3.7,1.7
		c0.1,0.1,0.1,0.2,0.1,0.3c0,0.3-0.2,0.5-0.5,0.5c-0.1,0-0.3,0-0.4-0.2c-0.6-0.8-1.6-1.4-2.8-1.4c-2.5,0-4,1.5-4,4.7
		c0,3.4,1.4,4.7,4,4.7C158.1,107.6,159.1,107,159.6,106.3z"/>
	<path class="st0" d="M174.8,97.8V108c0,0.3-0.2,0.6-0.6,0.6c-0.2,0-0.3-0.1-0.5-0.2l-5.8-8.7v8.4c0,0.3-0.2,0.5-0.5,0.5
		c-0.3,0-0.5-0.2-0.5-0.5V97.8c0-0.3,0.2-0.5,0.5-0.5c0.2,0,0.4,0.1,0.4,0.2l5.8,8.7v-8.4c0-0.3,0.2-0.5,0.5-0.5
		S174.8,97.5,174.8,97.8z"/>
	<path class="st0" d="M177.3,105v-7.2c0-0.3,0.2-0.6,0.6-0.6c0.3,0,0.6,0.2,0.6,0.6v7.2c0,1.3,0.5,2.5,2.7,2.5
		c2.2,0,2.7-1.2,2.7-2.5v-7.2c0-0.3,0.2-0.6,0.6-0.6c0.3,0,0.6,0.2,0.6,0.6v7.2c0,1.8-0.7,3.6-3.8,3.6S177.3,106.8,177.3,105z"/>
	<path class="st0" d="M187.1,98.4c-0.3,0-0.5-0.2-0.5-0.5c0-0.3,0.2-0.5,0.5-0.5h7c0.3,0,0.5,0.2,0.5,0.5c0,0.3-0.2,0.5-0.5,0.5
		h-2.9v9.5c0,0.3-0.2,0.6-0.6,0.6c-0.3,0-0.6-0.2-0.6-0.6v-9.5H187.1z"/>
	<path class="st0" d="M197.4,108c0,0.3-0.2,0.6-0.6,0.6c-0.3,0-0.6-0.2-0.6-0.6v-10c0-0.3,0.2-0.6,0.6-0.6h3.3
		c1.8,0,3.1,1.4,3.1,3.1c0,1.7-1.2,3-2.9,3.1l3,4c0.1,0.1,0.1,0.2,0.1,0.3c0,0.3-0.2,0.6-0.6,0.6c-0.2,0-0.3-0.1-0.5-0.3l-3.3-4.6
		h-1.7V108z M197.4,102.6h2.7c1.1,0,2-0.9,2-2.1c0-1.2-0.8-2.1-2-2.1h-2.7V102.6z"/>
	<path class="st0" d="M206.4,108c0,0.3-0.2,0.6-0.6,0.6c-0.3,0-0.6-0.3-0.6-0.6V97.8c0-0.3,0.2-0.6,0.6-0.6c0.3,0,0.6,0.3,0.6,0.6
		V108z"/>
	<path class="st0" d="M208.6,98.4c-0.3,0-0.5-0.2-0.5-0.5c0-0.3,0.2-0.5,0.5-0.5h7c0.3,0,0.5,0.2,0.5,0.5c0,0.3-0.2,0.5-0.5,0.5
		h-2.9v9.5c0,0.3-0.2,0.6-0.6,0.6c-0.3,0-0.6-0.2-0.6-0.6v-9.5H208.6z"/>
	<path class="st0" d="M218.9,108c0,0.3-0.2,0.6-0.6,0.6c-0.3,0-0.6-0.3-0.6-0.6V97.8c0-0.3,0.2-0.6,0.6-0.6c0.3,0,0.6,0.3,0.6,0.6
		V108z"/>
	<path class="st0" d="M220.9,102.9c0-3.9,1.9-5.7,5.1-5.7c3.2,0,5.1,1.9,5.1,5.7c0,3.8-1.9,5.7-5.1,5.7
		C222.9,108.6,220.9,106.7,220.9,102.9z M222.1,102.9c0,3.2,1.5,4.7,4,4.7c2.5,0,4-1.5,4-4.7c0-3.2-1.5-4.7-4-4.7
		C223.5,98.1,222.1,99.7,222.1,102.9z"/>
	<path class="st0" d="M240.9,97.8V108c0,0.3-0.2,0.6-0.6,0.6c-0.2,0-0.3-0.1-0.5-0.2l-5.8-8.7v8.4c0,0.3-0.2,0.5-0.5,0.5
		s-0.5-0.2-0.5-0.5V97.8c0-0.3,0.2-0.5,0.5-0.5c0.2,0,0.4,0.1,0.4,0.2l5.8,8.7v-8.4c0-0.3,0.2-0.5,0.5-0.5S240.9,97.5,240.9,97.8z"
		/>
	
		<linearGradient id="SVGID_00000138555281506477558550000013291554926330574468_" gradientUnits="userSpaceOnUse" x1="14.1175" y1="50.5084" x2="114.7015" y2="50.5084">
		<stop  offset="0" style="stop-color:#2B3C90"/>
		<stop  offset="0.475" style="stop-color:#51338B;stop-opacity:0.8"/>
		<stop  offset="0.5928" style="stop-color:#5A3C90;stop-opacity:0.6144"/>
		<stop  offset="0.9511" style="stop-color:#71519D;stop-opacity:5.000000e-02"/>
	</linearGradient>
	<path style="fill:url(#SVGID_00000138555281506477558550000013291554926330574468_);" d="M27.6,87.4c-3.7-6.6-5.8-14.3-5.8-22.4
		c0-26,21.7-47,48.4-47c20,0,37.2,11.8,44.5,28.6c-7.8-19.4-26.5-33.1-48.4-33.1c-28.8,0-52.2,23.8-52.2,53.1
		c0,7.3,1.5,14.3,4.1,20.7H27.6z"/>
</g>
<g>
	<g>
		<path class="st0" d="M427.8,75.9c0-8.1,4-12,10.7-12s10.7,3.9,10.7,12c0,8-4,12-10.7,12S427.8,84,427.8,75.9z M430.2,75.9
			c0,6.7,3,9.9,8.3,9.9c5.2,0,8.3-3.2,8.3-9.9c0-6.7-3-9.9-8.3-9.9C433.2,66,430.2,69.2,430.2,75.9z"/>
		<path class="st0" d="M469.3,65.2v21.3c0,0.7-0.5,1.2-1.2,1.2c-0.4,0-0.7-0.2-1-0.5L455.1,69v17.5c0,0.6-0.5,1.1-1.1,1.1
			c-0.6,0-1.1-0.5-1.1-1.1V65.2c0-0.6,0.5-1.1,1.1-1.1c0.4,0,0.8,0.2,0.9,0.5L467,82.8V65.2c0-0.6,0.5-1.1,1.1-1.1
			S469.3,64.6,469.3,65.2z"/>
		<path class="st0" d="M473,75.9c0-8.1,4-12,10.7-12c3.3,0,6.1,1.4,7.7,3.6c0.2,0.2,0.2,0.5,0.2,0.7c0,0.6-0.5,1.1-1.1,1.1
			c-0.3,0-0.6-0.1-0.9-0.4c-1.2-1.6-3.4-2.9-6-2.9c-5.3,0-8.3,3.2-8.3,9.9c0,7.1,3,9.9,8.3,9.9c2.3,0,4.6-0.9,6-2.8
			c0.2-0.3,0.6-0.4,0.9-0.4c0.6,0,1.1,0.5,1.1,1.1c0,0.3-0.1,0.4-0.2,0.7c-1.5,2.2-4.6,3.6-7.7,3.6C477.1,87.9,473,84.3,473,75.9z"
			/>
		<path class="st0" d="M493.8,75.9c0-8.1,4-12,10.7-12s10.7,3.9,10.7,12c0,8-4,12-10.7,12S493.8,84,493.8,75.9z M496.2,75.9
			c0,6.7,3,9.9,8.3,9.9c5.2,0,8.3-3.2,8.3-9.9c0-6.7-3-9.9-8.3-9.9C499.2,66,496.2,69.2,496.2,75.9z"/>
		<path class="st0" d="M530.7,85.2c0.6,0,1.1,0.5,1.1,1.1s-0.5,1.1-1.1,1.1h-10.5c-0.7,0-1.2-0.5-1.2-1.2v-21c0-0.7,0.5-1.2,1.2-1.2
			s1.2,0.5,1.2,1.2v20H530.7z"/>
		<path class="st0" d="M532.7,75.9c0-8.1,4-12,10.7-12s10.7,3.9,10.7,12c0,8-4,12-10.7,12S532.7,84,532.7,75.9z M535.1,75.9
			c0,6.7,3,9.9,8.3,9.9c5.2,0,8.3-3.2,8.3-9.9c0-6.7-3-9.9-8.3-9.9C538.1,66,535.1,69.2,535.1,75.9z"/>
		<path class="st0" d="M573.9,83v-5h-5.7c-0.6,0-1.1-0.5-1.1-1.1s0.5-1.1,1.1-1.1h6.9c0.5,0,1.1,0.5,1.1,1.1v6
			c0,0.4-0.1,0.8-0.4,1.1c-1.6,1.9-4,3.8-8.2,3.8c-6.6,0-10.7-3.6-10.7-12c0-8.1,4-12,10.7-12c3.3,0,6.1,1.4,7.7,3.6
			c0.2,0.2,0.2,0.5,0.2,0.7c0,0.6-0.5,1.1-1.1,1.1c-0.3,0-0.6-0.1-0.9-0.4c-1.2-1.6-3.4-2.9-6-2.9c-5.3,0-8.3,3.2-8.3,9.9
			c0,7.1,3,9.9,8.3,9.9C570.7,85.8,572.7,84.4,573.9,83z"/>
		<path class="st0" d="M584.8,86.5v-9.8L578,65.9c-0.1-0.2-0.2-0.4-0.2-0.6c0-0.7,0.5-1.2,1.2-1.2c0.4,0,0.8,0.2,1,0.5l6.1,9.7
			l6.1-9.7c0.2-0.3,0.6-0.5,1-0.5c0.7,0,1.2,0.5,1.2,1.2c0,0.2-0.1,0.4-0.2,0.6l-6.9,10.8v9.8c0,0.7-0.5,1.2-1.2,1.2
			S584.8,87.2,584.8,86.5z"/>
	</g>
</g>
<g>
	<path class="st0" d="M24.4,107.2c0.3,0,0.5,0.2,0.5,0.5c0,0.3-0.2,0.5-0.5,0.5h-5c-0.3,0-0.6-0.2-0.6-0.6v-10
		c0-0.3,0.2-0.6,0.6-0.6c0.3,0,0.6,0.2,0.6,0.6v9.5H24.4z"/>
	<path class="st10" d="M283.2,87.4V54.5H299c7.4,0,13.3,1.7,13.3,8.3c0,3.4-2.2,5.9-4.3,7.2c3.5,0.9,5.5,4,5.5,7.6
		c0,7.4-5.6,9.9-14.2,9.9L283.2,87.4L283.2,87.4z M294,73.7v6.1h4.7c2.7,0,4.7-0.6,4.7-3c0-2.9-2.5-3.1-5.9-3.1L294,73.7L294,73.7z
		 M294,62.2v5.5h4.5c2.1,0,3.7-1,3.7-2.9c0-2.6-2.1-2.6-4.4-2.6H294z"/>
	<path class="st10" d="M332.8,87.4l-0.4-2.6c-2.7,2.5-5.4,3.3-9,3.3c-4.5,0-8.6-2.2-8.6-7.2c0-10.9,17-5.9,17-10.4
		c0-1.7-2.1-2-3.1-2c-1.3,0-3.1,0.3-3.3,2.3h-9.1c0-5.1,3.6-8.1,13.1-8.1c11.3,0,12,4.2,12,9.9v11.2c0,1.4,0,2.1,1.3,3.1v0.4
		L332.8,87.4L332.8,87.4z M331.8,76.8c-3.1,1.5-7.2,0.8-7.2,3.9c0,1.2,1.1,2,3,2C331,82.7,332.1,80.1,331.8,76.8"/>
	<path class="st10" d="M354.3,88.6c0,0.3,0.2,0.7,0.6,1c0.4,0.4,1.1,0.6,2.1,0.6c2.7,0,3.8-1.2,3.8-4.6v-2c-1.4,1.4-3.4,2.6-6.9,2.6
		c-6.6,0-10.4-5.2-10.4-11.3c0-5.9,2.8-12.2,10.7-12.2c2.9,0,5.6,1.5,7.3,3.9v-3.2h8.4v19.3c0,7.2-0.8,12.8-12.6,12.8
		c-8.5,0-12-3.4-12.5-6.9L354.3,88.6L354.3,88.6z M353.1,75c0,2.4,1.2,4.6,3.7,4.7c2.9,0.1,4-2.4,4-4.9c0-2.6-1-5.2-4-5.2
		C353.9,69.5,353.1,71.9,353.1,75"/>
	<path class="st10" d="M385,62.8c8.5,0,13.7,5,13.7,12.5c0,8.8-5.9,12.9-13.6,12.9c-7.7,0-13.6-4.2-13.6-12.4
		C371.4,67.4,376.9,62.8,385,62.8 M380.9,75.2c0,4.5,1.7,6.5,4.1,6.5c2.6,0,4.1-2,4.1-6.5c0-3.5-1.5-6.2-4-6
		C381.9,69.2,380.9,72.5,380.9,75.2"/>
	<polygon class="st10" points="380.5,60.9 386.9,60.9 394.6,54.2 385.3,54.2 	"/>
	<path class="st10" d="M265.6,71.4c0,3.1-2.5,5.7-5.7,5.7c-3.1,0-5.7-2.5-5.7-5.7s2.5-5.7,5.7-5.7C263.1,65.7,265.6,68.2,265.6,71.4
		"/>
</g>
</svg>
